<?xml version="1.0" encoding="utf-8"?>
<!-- Generator: Adobe Illustrator 27.5.0, SVG Export Plug-In . SVG Version: 6.00 Build 0)  -->
<svg version="1.1" id="_x3C_Layer_x3E_" xmlns="http://www.w3.org/2000/svg" xmlns:xlink="http://www.w3.org/1999/xlink" x="0px"
	 y="0px" viewBox="0 0 2760 1840" style="enable-background:new 0 0 2760 1840;" xml:space="preserve">
<rect style="fill:#FFFFFF;" width="2760" height="1840"/>
<g>
	<path style="fill:#EBF3FA;" d="M2508.275,1649.083c-134.201,0-1952.543,2.903-2031.67-0.677c0,0-138.424,1.788-177.779,0
		c-0.747-1.744-296.323-597.865,284.713-836.411c209.365-85.957-11.438-221.612,133.896-370.218
		c167.025-170.772,349.304,18.144,535.031-59.295c32.816-13.669,65.745-35.671,98.709-69.434
		c18.555-18.985,38.891-35.589,60.66-49.926c3.337-2.206,6.71-4.361,10.115-6.454c13.037-8.015,26.551-15.26,40.474-21.776
		c9.351-4.372,18.876-8.415,28.583-12.13h0.009c15.399-5.9,31.217-10.991,47.372-15.291c22.943-6.117,46.565-10.663,70.655-13.741
		c10.507-1.354,21.102-2.411,31.773-3.212c207.523-15.465,358.917,38.393,484.253,160.8
		c71.736,70.062,132.486,198.366,89.762,404.518c-27.119,130.853,210.342,198.301,292.091,329.583
		C2714.767,1419.202,2510.16,1644.731,2508.275,1649.083z"/>
	<g>
		<path style="fill:#798EE8;" d="M1387.111,1036.144l-48.327,574.62c0,0-5.063,34.832,20.846,34.894
			c42.601,0.103,212.036,0,212.036,0s-32.063-7.25-31.674-23.564c0.457-19.229,56.483-591.388,56.483-591.388L1387.111,1036.144z"/>
		<path style="fill:#AEC3FF;" d="M1587.616,1635.213c-8.378,0.025-172.413,0.303-213.899-0.23
			c-18.08-0.225-21.25-16.074-21.399-26.334c-0.075-4.917,0.549-8.553,0.549-8.553l1.256-14.936l3.203-38.065l2.83-33.631
			l3.635-43.217l3.063-36.477l34.338-408.307l209.366-5.434c0,0-23.596,239.444-40.286,413.74
			c-1.864,19.42-3.636,38.041-5.276,55.423c-0.532,5.55-1.039,10.975-1.539,16.258c-1.548,16.491-2.962,31.635-4.193,45.005
			c-0.648,7.048-1.248,13.596-1.789,19.595c-2.13,23.505-3.378,38.516-3.395,41.369c-0.009,1.664,0.134,3.212,0.408,4.65
			C1557.923,1634.384,1584.472,1635.213,1587.616,1635.213z"/>
		<polygon style="fill:#AEC3FF;" points="878.655,723.208 996.373,1196.05 1012.49,1260.807 1067.316,1481.042 2085.903,1481.042 
			1883.822,723.208 		"/>
		<polygon style="fill:#798EE8;" points="878.654,723.207 862.34,728.646 1045.627,1497.492 1067.317,1481.045 		"/>
		<polygon style="fill:#849DEF;" points="1045.627,1497.492 2057.945,1497.492 2085.899,1481.045 1067.317,1481.045 		"/>
		
			<rect x="1401.123" y="1635.213" transform="matrix(-1 -1.224647e-16 1.224647e-16 -1 3021.4277 3280.8418)" style="fill:#AEC3FF;" width="219.182" height="10.416"/>
		<polygon style="fill:#8C9DF4;" points="1564.587,1497.488 1563.455,1505.451 1357.325,1547.095 1360.155,1513.464 
			1361.503,1497.488 		"/>
		<path style="opacity:0.5;fill:#8C9DF4;" d="M1587.616,1635.213c-8.378,0.025-172.413,0.303-213.899-0.23
			c-18.08-0.225-21.25-16.074-21.399-26.334l205.155-38.598c-2.13,23.505-3.378,38.516-3.395,41.369
			c-0.009,1.664,0.134,3.212,0.408,4.65C1557.923,1634.384,1584.472,1635.213,1587.616,1635.213z"/>
		<polygon style="fill:#8C9DF4;" points="878.654,723.207 1883.821,723.207 2046.911,1332.268 1030.279,1332.268 		"/>
		<polygon style="fill:#505ABA;" points="1999.502,1305.874 1058.36,1305.874 1024.729,1171.897 1011.717,1120.06 
			1006.412,1098.921 971.844,961.234 970.059,954.066 951.782,881.289 943.606,848.726 936.637,820.945 930.943,798.292 
			920.285,755.837 1847.867,755.837 1859.572,798.292 1865.814,820.945 1873.472,848.726 1882.445,881.289 1941.592,1095.82 
			1941.592,1095.83 1946.597,1114.007 1948.93,1122.442 1989.761,1270.549 		"/>
	</g>
	<g>
		<path style="fill:#FFA412;" d="M1538.935,1123.216c-0.669-1.432-1.499-2.735-2.469-3.919l0.001-0.001l-0.011-0.011
			c-0.721-0.879-1.523-1.689-2.4-2.433l-3.622-3.672l-0.953,0.702c-18.543-9.078-56.837,0.545-95.574,25.835
			c-46.817,30.564-76.872,72.651-68.204,95.019l-1.32,0.975l5.207,5.189c0.248,0.263,0.505,0.518,0.77,0.767l0.147,0.147
			l0.045,0.031c1.318,1.207,2.825,2.251,4.503,3.134l0.026,0.018l0.004-0.003c18.306,9.593,57.01,0.043,96.17-25.523
			C1518.946,1188.334,1549.248,1145.239,1538.935,1123.216z"/>
		<path style="fill:#FFB93E;" d="M1428.337,1134.148c47.692-31.138,94.715-38.525,105.028-16.502
			c10.313,22.023-19.988,65.118-67.681,96.255c-47.692,31.136-94.716,38.524-105.028,16.501
			C1350.343,1208.379,1380.645,1165.284,1428.337,1134.148z"/>
		<g>
			<path style="fill:#FFA412;" d="M1394.095,1233.698c-3.87,0.001-7.395-0.435-10.497-1.327c-5.947-1.714-10.074-5.007-12.266-9.784
				c-4.301-9.377-0.318-23.3,11.216-39.204c11.269-15.538,28.469-31.295,48.433-44.367l0,0
				c30.66-20.077,61.843-29.774,79.443-24.705c5.946,1.714,10.074,5.006,12.266,9.784c4.301,9.377,0.317,23.3-11.217,39.203
				c-11.268,15.538-28.469,31.295-48.432,44.368C1437.787,1224.203,1412.175,1233.698,1394.095,1233.698z M1500.039,1116.494
				c-17.294,0-42.694,9.438-67.142,25.447c-19.617,12.847-36.492,28.293-47.517,43.496c-10.604,14.622-14.566,27.63-10.869,35.69
				c1.747,3.811,5.131,6.462,10.055,7.881c2.757,0.793,5.922,1.18,9.415,1.18c17.294,0.001,42.694-9.44,67.143-25.449
				c19.617-12.846,36.492-28.293,47.517-43.495c10.604-14.622,14.565-27.631,10.869-35.69c-1.748-3.811-5.131-6.463-10.055-7.88
				C1506.698,1116.879,1503.532,1116.494,1500.039,1116.494z"/>
		</g>
		<g>
			<path style="fill:#FFA412;" d="M1427.796,1185.375c1.473-0.646,2.782-1.355,3.931-2.126c1.149-0.771,2.209-1.672,3.182-2.702
				c0.973-1.031,1.893-2.216,2.761-3.552c0.867-1.336,1.738-2.884,2.614-4.646c1.536-3.044,3.113-5.888,4.728-8.53
				c1.615-2.643,3.422-5.091,5.42-7.346c1.997-2.256,4.277-4.327,6.843-6.216c2.566-1.889,5.566-3.587,9.002-5.096
				c2.979-1.31,5.662-2.149,8.047-2.521c2.384-0.371,4.424-0.3,6.12,0.211c1.695,0.513,3.024,1.434,3.986,2.764
				c0.962,1.329,1.491,3.061,1.586,5.194l11.251-4.943l-0.586,6.059l-11.41,5.012c-0.63,2.355-1.681,4.702-3.147,7.038
				c-1.468,2.337-3.297,4.578-5.483,6.724c-2.189,2.146-4.727,4.173-7.612,6.081c-2.887,1.908-6.083,3.633-9.587,5.172l1.06-10.942
				c4.206-1.848,7.412-3.854,9.62-6.021c2.204-2.165,3.411-4.296,3.614-6.391c0.109-1.136-0.032-2.012-0.427-2.623
				c-0.393-0.612-0.977-1.003-1.749-1.172c-0.772-0.168-1.707-0.132-2.805,0.109c-1.097,0.239-2.294,0.645-3.591,1.215
				s-2.483,1.212-3.559,1.926c-1.076,0.714-2.091,1.577-3.045,2.588c-0.953,1.012-1.874,2.201-2.762,3.57
				c-0.889,1.369-1.826,2.995-2.814,4.879c-1.604,3.049-3.222,5.893-4.854,8.531c-1.631,2.639-3.455,5.088-5.469,7.351
				c-2.015,2.263-4.306,4.339-6.871,6.228c-2.565,1.888-5.549,3.579-8.948,5.072c-3.084,1.354-5.819,2.212-8.202,2.57
				c-2.384,0.358-4.406,0.273-6.066-0.254s-2.945-1.479-3.852-2.857c-0.907-1.378-1.407-3.134-1.504-5.267l-10.462,4.596
				l0.583-6.021l10.41-4.573c0.519-2.233,1.398-4.56,2.639-6.978c1.242-2.418,2.926-4.818,5.053-7.204
				c2.127-2.384,4.741-4.692,7.845-6.926c3.103-2.233,6.757-4.273,10.963-6.121l-1.061,10.942c-2.488,1.094-4.588,2.239-6.298,3.438
				c-1.71,1.197-3.104,2.408-4.178,3.63c-1.074,1.221-1.862,2.419-2.361,3.593c-0.5,1.174-0.8,2.278-0.899,3.313
				c-0.114,1.186,0.011,2.128,0.38,2.823c0.369,0.696,0.927,1.17,1.675,1.422s1.659,0.287,2.734,0.104
				C1425.313,1186.32,1426.499,1185.944,1427.796,1185.375z"/>
		</g>
	</g>
	<g>
		<path style="fill:#FFA412;" d="M1872.592,1533.311c-0.547-1.441-1.258-2.771-2.115-3.993l0.001-0.001l-0.01-0.011
			c-0.637-0.907-1.357-1.753-2.156-2.541l-3.255-3.837l-0.979,0.614c-17.372-10.185-55.322-3.625-94.848,18.142
			c-47.77,26.309-80.078,65.046-73.281,87.436l-1.356,0.852l4.685,5.428c0.224,0.272,0.453,0.54,0.693,0.802l0.132,0.153
			l0.042,0.034c1.194,1.271,2.583,2.396,4.151,3.378l0.024,0.02l0.003-0.003c17.104,10.667,55.447,4.208,95.405-17.797
			C1848.392,1595.186,1881.014,1555.484,1872.592,1533.311z"/>
		<path style="fill:#FFB93E;" d="M1764.221,1535.86c48.664-26.8,94.939-30.549,103.361-8.375
			c8.422,22.176-24.201,61.877-72.864,88.675c-48.663,26.8-94.939,30.549-103.36,8.375
			C1682.936,1602.36,1715.558,1562.659,1764.221,1535.86z"/>
		<g>
			<path style="fill:#FFA412;" d="M1723.64,1630.185c-3.765-0.282-7.16-0.964-10.112-2.06c-5.66-2.101-9.434-5.604-11.215-10.413
				c-3.498-9.434,1.394-22.684,13.774-37.31c12.096-14.29,29.977-28.358,50.35-39.614l0,0
				c31.288-17.287,62.327-24.439,79.074-18.224c5.66,2.102,9.434,5.605,11.217,10.413c3.497,9.435-1.395,22.686-13.776,37.312
				c-12.095,14.29-29.977,28.358-50.35,39.614C1766.83,1624.143,1741.225,1631.506,1723.64,1630.185z M1835.253,1523.929
				c-16.822-1.264-42.217,6.062-67.167,19.846c-20.019,11.061-37.561,24.852-49.395,38.832
				c-11.384,13.447-16.187,25.811-13.181,33.92c1.423,3.835,4.519,6.66,9.204,8.4c2.623,0.973,5.674,1.58,9.071,1.835
				c16.82,1.266,42.217-6.061,67.166-19.845c20.019-11.062,37.562-24.853,49.396-38.833c11.383-13.446,16.187-25.81,13.18-33.919
				c-1.422-3.835-4.518-6.661-9.204-8.4C1841.701,1524.79,1838.649,1524.184,1835.253,1523.929z"/>
		</g>
		<g>
			<path style="fill:#FFA412;" d="M1759.951,1585.646c1.479-0.521,2.805-1.115,3.979-1.78c1.173-0.666,2.271-1.464,3.291-2.396
				c1.021-0.933,2.003-2.017,2.945-3.252c0.941-1.236,1.902-2.679,2.883-4.329c1.717-2.848,3.458-5.498,5.222-7.951
				c1.765-2.452,3.699-4.702,5.808-6.75c2.107-2.047,4.478-3.896,7.11-5.544c2.634-1.649,5.677-3.082,9.128-4.299
				c2.993-1.055,5.663-1.677,8.011-1.863c2.346-0.187,4.325,0.031,5.938,0.653c1.611,0.621,2.836,1.614,3.675,2.979
				c0.839,1.363,1.227,3.086,1.163,5.167l11.305-3.984l-1.014,5.85l-11.463,4.04c-0.787,2.246-1.979,4.451-3.576,6.616
				c-1.6,2.166-3.541,4.212-5.826,6.139s-4.901,3.713-7.848,5.358c-2.947,1.645-6.182,3.089-9.703,4.33l1.83-10.565
				c4.227-1.49,7.492-3.208,9.797-5.152c2.304-1.945,3.632-3.93,3.982-5.953c0.189-1.097,0.116-1.957-0.223-2.581
				c-0.337-0.626-0.877-1.047-1.614-1.268c-0.74-0.22-1.651-0.254-2.737-0.1c-1.084,0.153-2.278,0.46-3.582,0.92
				c-1.303,0.459-2.504,0.997-3.602,1.612c-1.099,0.616-2.148,1.381-3.15,2.296c-1.002,0.913-1.984,2.003-2.947,3.269
				c-0.964,1.268-1.994,2.781-3.094,4.541c-1.783,2.849-3.564,5.497-5.344,7.943c-1.78,2.446-3.732,4.696-5.856,6.75
				c-2.126,2.054-4.506,3.904-7.138,5.554c-2.635,1.649-5.66,3.076-9.076,4.28c-3.098,1.093-5.821,1.727-8.164,1.9
				c-2.346,0.174-4.307-0.056-5.883-0.69c-1.576-0.634-2.756-1.653-3.537-3.061c-0.781-1.406-1.14-3.151-1.077-5.232l-10.513,3.706
				l1.008-5.813l10.459-3.688c0.668-2.135,1.693-4.332,3.076-6.594c1.385-2.262,3.198-4.474,5.442-6.638
				c2.242-2.163,4.954-4.218,8.135-6.163s6.885-3.663,11.11-5.152l-1.831,10.565c-2.5,0.881-4.626,1.843-6.376,2.883
				c-1.751,1.04-3.194,2.116-4.329,3.226c-1.135,1.108-1.988,2.217-2.56,3.321c-0.572,1.106-0.944,2.158-1.117,3.158
				c-0.198,1.146-0.144,2.069,0.163,2.773c0.309,0.704,0.817,1.206,1.525,1.505c0.709,0.3,1.593,0.399,2.651,0.301
				C1757.467,1586.385,1758.647,1586.106,1759.951,1585.646z"/>
		</g>
	</g>
	<g>
		<path style="fill:#FFA412;" d="M1512.748,1258.227c0.677-1.444,1.514-2.762,2.493-3.957h-0.001l0.011-0.012
			c0.728-0.887,1.538-1.705,2.423-2.456l3.658-3.708l0.963,0.71c18.723-9.167,57.389,0.549,96.501,26.085
			c47.271,30.861,77.616,73.355,68.864,95.94l1.335,0.984l-5.258,5.239c-0.251,0.265-0.51,0.522-0.777,0.773l-0.148,0.148
			l-0.046,0.033c-1.332,1.219-2.853,2.272-4.547,3.163l-0.027,0.019l-0.004-0.003c-18.482,9.686-57.562,0.043-97.102-25.771
			C1532.931,1323.977,1502.335,1280.464,1512.748,1258.227z"/>
		<path style="fill:#FFB93E;" d="M1624.419,1269.265c-48.155-31.438-95.634-38.898-106.047-16.661
			c-10.414,22.236,20.182,65.749,68.337,97.188c48.154,31.439,95.633,38.898,106.047,16.661
			C1703.17,1344.216,1672.573,1300.703,1624.419,1269.265z"/>
		<g>
			<path style="fill:#FFA412;" d="M1589.378,1343.496c-20.157-13.199-37.524-29.109-48.901-44.799
				c-11.646-16.058-15.668-30.115-11.325-39.583c2.212-4.824,6.38-8.148,12.385-9.879c17.771-5.118,49.255,4.673,80.213,24.944l0,0
				c20.158,13.199,37.524,29.109,48.902,44.799c11.646,16.058,15.667,30.115,11.325,39.582c-2.213,4.824-6.38,8.148-12.384,9.879
				c-3.134,0.903-6.69,1.343-10.599,1.342C1640.737,1369.78,1614.878,1360.193,1589.378,1343.496z M1542.514,1252.631
				c-4.972,1.432-8.388,4.109-10.152,7.956c-3.732,8.138,0.268,21.273,10.975,36.037c11.132,15.35,28.171,30.946,47.978,43.917
				c24.686,16.164,50.332,25.697,67.794,25.695c3.526,0,6.724-0.39,9.507-1.19c4.972-1.434,8.387-4.11,10.152-7.958
				c3.731-8.138-0.268-21.273-10.975-36.036c-11.133-15.35-28.171-30.946-47.978-43.917c-24.686-16.164-50.331-25.695-67.794-25.695
				C1548.494,1251.439,1545.297,1251.828,1542.514,1252.631z"/>
		</g>
		<g>
			<path style="fill:#FFA412;" d="M1628.557,1322.127c1.085,0.185,2.005,0.149,2.76-0.104c0.756-0.255,1.318-0.733,1.69-1.436
				c0.373-0.703,0.501-1.653,0.385-2.852c-0.102-1.045-0.403-2.159-0.908-3.346c-0.504-1.185-1.299-2.395-2.385-3.628
				c-1.084-1.233-2.491-2.455-4.218-3.664c-1.726-1.211-3.847-2.367-6.359-3.471l-1.07-11.05c4.247,1.866,7.938,3.927,11.069,6.181
				c3.133,2.255,5.773,4.587,7.921,6.993c2.147,2.408,3.848,4.833,5.101,7.275c1.254,2.44,2.143,4.789,2.665,7.044l10.511,4.618
				l0.59,6.079l-10.564-4.641c-0.097,2.153-0.603,3.926-1.519,5.318c-0.915,1.391-2.211,2.353-3.889,2.885
				c-1.676,0.532-3.717,0.618-6.125,0.256c-2.406-0.361-5.168-1.228-8.281-2.595c-3.434-1.509-6.445-3.216-9.036-5.123
				c-2.59-1.906-4.902-4.002-6.938-6.286c-2.033-2.285-3.874-4.759-5.521-7.423c-1.647-2.663-3.281-5.535-4.901-8.613
				c-0.997-1.902-1.944-3.545-2.841-4.927c-0.896-1.383-1.825-2.584-2.788-3.604c-0.964-1.021-1.988-1.893-3.075-2.613
				c-1.085-0.722-2.283-1.369-3.593-1.944c-1.309-0.576-2.519-0.984-3.626-1.227c-1.108-0.244-2.052-0.279-2.833-0.11
				c-0.778,0.171-1.368,0.564-1.765,1.184c-0.397,0.618-0.542,1.5-0.431,2.647c0.205,2.115,1.423,4.267,3.65,6.453
				c2.228,2.188,5.466,4.213,9.712,6.078l1.07,11.049c-3.538-1.554-6.765-3.295-9.681-5.223c-2.913-1.927-5.475-3.974-7.685-6.14
				s-4.055-4.429-5.537-6.787c-1.481-2.359-2.542-4.729-3.18-7.107l-11.519-5.061l-0.594-6.117l11.361,4.99
				c0.095-2.153,0.631-3.901,1.601-5.244c0.972-1.343,2.313-2.272,4.025-2.789s3.772-0.588,6.18-0.213
				c2.409,0.373,5.117,1.223,8.125,2.544c3.469,1.523,6.498,3.239,9.089,5.146s4.894,3.998,6.91,6.275
				c2.017,2.276,3.84,4.748,5.472,7.418c1.63,2.668,3.222,5.539,4.773,8.612c0.884,1.779,1.764,3.344,2.64,4.692
				s1.806,2.544,2.787,3.586c0.982,1.04,2.053,1.95,3.213,2.729c1.16,0.777,2.482,1.493,3.969,2.146
				C1626.275,1321.563,1627.471,1321.943,1628.557,1322.127z"/>
		</g>
	</g>
	<g>
		<g>
			<g>
				<g>
					<path style="fill:#FFB93E;" d="M1406.594,1626.717v13.675c0,1.085-0.396,2.098-1.077,2.94c-0.713,0.883-1.742,1.579-2.94,1.969
						c-0.373,0.13-0.754,0.219-1.15,0.275c-0.364,0.057-0.729,0.081-1.11,0.081h-259.337c-3.135,0-5.752-1.952-6.214-4.479
						c-0.023-0.171-0.049-0.341-0.056-0.52c0-0.089-0.01-0.178-0.01-0.267v-13.675c0-0.09,0.01-0.18,0.01-0.269
						c0.007-0.178,0.032-0.349,0.056-0.519c0.462-2.526,3.079-4.48,6.214-4.48h259.337c0.381,0,0.746,0.024,1.11,0.081
						c0.396,0.058,0.777,0.155,1.15,0.276c1.198,0.389,2.228,1.086,2.94,1.969
						C1406.197,1624.617,1406.594,1625.63,1406.594,1626.717z"/>
					<path style="fill:#FFA412;" d="M1279.247,1645.657h-138.941c-2.574,0-4.743-1.663-5.39-3.9
						c-0.062-0.189-0.115-0.382-0.151-0.579c-0.023-0.171-0.049-0.341-0.056-0.52c0-0.089-0.01-0.178-0.01-0.267v-13.675
						c0-0.09,0.01-0.18,0.01-0.269c0.007-0.178,0.032-0.349,0.056-0.519c0.036-0.197,0.09-0.39,0.151-0.58
						c0.646-2.236,2.815-3.9,5.39-3.9h121.88C1264.129,1628.58,1268.666,1638.431,1279.247,1645.657z"/>
					<g>
						<rect x="1372.088" y="1621.449" style="fill:#FFA412;" width="2.947" height="24.211"/>
						<rect x="1362.11" y="1621.449" style="fill:#FFA412;" width="2.948" height="24.211"/>
						<rect x="1350.146" y="1621.449" style="fill:#FFA412;" width="2.947" height="24.211"/>
						<rect x="1331.806" y="1621.449" style="fill:#FFA412;" width="2.948" height="24.211"/>
						<rect x="1312.413" y="1621.449" style="fill:#FFA412;" width="2.948" height="24.211"/>
						<rect x="1282.684" y="1621.449" style="fill:#FFA412;" width="2.946" height="24.211"/>
						<rect x="1254.846" y="1621.449" style="fill:#FFA412;" width="2.947" height="24.211"/>
						<rect x="1229.99" y="1621.449" style="fill:#FFA412;" width="2.946" height="24.211"/>
						<rect x="1381.586" y="1621.449" style="fill:#FFA412;" width="2.946" height="24.211"/>
						<rect x="1387.859" y="1621.449" style="fill:#FFA412;" width="2.948" height="24.211"/>
						<rect x="1393.919" y="1621.449" style="fill:#FFA412;" width="2.946" height="24.211"/>
						<path style="fill:#FFA412;" d="M1401.424,1621.533v24.041c-0.36,0.056-0.728,0.085-1.105,0.085h-1.842v-24.21h1.842
							C1400.696,1621.449,1401.063,1621.478,1401.424,1621.533z"/>
						<path style="fill:#FFA412;" d="M1405.518,1623.775v19.557c-0.715,0.886-1.741,1.582-2.945,1.972v-23.5
							C1403.776,1622.194,1404.803,1622.891,1405.518,1623.775z"/>
					</g>
				</g>
				<g>
					<path style="fill:#FFB93E;" d="M1378.862,1602.509v13.667c0,1.095-0.396,2.106-1.069,2.949
						c-0.178,0.219-0.381,0.429-0.591,0.624c-0.648,0.583-1.45,1.053-2.357,1.345c-0.364,0.121-0.754,0.211-1.151,0.267
						c-0.356,0.057-0.729,0.089-1.101,0.089h-259.346c-3.127,0-5.744-1.96-6.206-4.487c-0.024-0.17-0.049-0.341-0.057-0.511
						c-0.008-0.088-0.008-0.178-0.008-0.275v-13.667c0-0.089,0-0.187,0.008-0.274c0.008-0.171,0.032-0.341,0.057-0.512
						c0.462-2.527,3.079-4.487,6.206-4.487h259.346c0.161,0,0.331,0.008,0.494,0.024c0.064,0,0.121,0.008,0.179,0.016
						c0.007-0.008,0.023-0.008,0.031,0c0.072,0,0.153,0.008,0.235,0.024c0.057,0.008,0.105,0.017,0.161,0.024
						c0.397,0.057,0.787,0.146,1.151,0.267c0.219,0.073,0.43,0.154,0.632,0.243h0.008c0.138,0.064,0.275,0.13,0.405,0.194
						c0.073,0.04,0.153,0.089,0.228,0.13c0.071,0.041,0.146,0.081,0.21,0.13c0.275,0.161,0.526,0.349,0.762,0.559
						c0.081,0.064,0.146,0.138,0.219,0.203c0.048,0.04,0.089,0.081,0.129,0.121c0.024,0.024,0.049,0.049,0.065,0.073l0.057,0.057
						c0.08,0.08,0.162,0.17,0.234,0.268C1378.466,1600.41,1378.862,1601.414,1378.862,1602.509z"/>
					<path style="fill:#FFA412;" d="M1251.516,1621.449h-138.941c-2.574,0-4.738-1.671-5.382-3.909
						c-0.062-0.19-0.114-0.381-0.151-0.578c-0.024-0.17-0.049-0.341-0.057-0.511c-0.008-0.088-0.008-0.178-0.008-0.275v-13.667
						c0-0.089,0-0.187,0.008-0.274c0.008-0.171,0.032-0.341,0.057-0.512c0.037-0.196,0.09-0.388,0.151-0.578
						c0.644-2.238,2.808-3.909,5.382-3.909h121.879c0.049,0.202,0.106,0.396,0.171,0.599
						C1236.657,1604.906,1241.227,1614.426,1251.516,1621.449z"/>
					<g>
						<rect x="1344.359" y="1597.237" style="fill:#FFA412;" width="2.948" height="24.212"/>
						<rect x="1334.383" y="1597.237" style="fill:#FFA412;" width="2.947" height="24.212"/>
						<rect x="1322.417" y="1597.237" style="fill:#FFA412;" width="2.948" height="24.212"/>
						<rect x="1304.078" y="1597.237" style="fill:#FFA412;" width="2.947" height="24.212"/>
						<rect x="1284.685" y="1597.237" style="fill:#FFA412;" width="2.948" height="24.212"/>
						<rect x="1254.955" y="1597.237" style="fill:#FFA412;" width="2.946" height="24.212"/>
						<rect x="1227.117" y="1597.237" style="fill:#FFA412;" width="2.948" height="24.212"/>
						<rect x="1202.261" y="1597.237" style="fill:#FFA412;" width="2.947" height="24.212"/>
						<rect x="1353.857" y="1597.237" style="fill:#FFA412;" width="2.947" height="24.212"/>
						<rect x="1360.131" y="1597.237" style="fill:#FFA412;" width="2.948" height="24.212"/>
						<rect x="1366.19" y="1597.237" style="fill:#FFA412;" width="2.947" height="24.212"/>
						<path style="fill:#FFA412;" d="M1373.696,1597.321v24.042c-0.36,0.056-0.729,0.085-1.106,0.085h-1.842v-24.212h1.842
							C1372.968,1597.236,1373.336,1597.267,1373.696,1597.321z"/>
						<path style="fill:#FFA412;" d="M1377.789,1599.564v19.557c-0.715,0.885-1.741,1.581-2.944,1.971v-23.499
							C1376.048,1597.982,1377.074,1598.679,1377.789,1599.564z"/>
					</g>
				</g>
				<g>
					<path style="fill:#FFB93E;" d="M1392.263,1578.893v13.676c0,1.086-0.397,2.098-1.077,2.94c-0.713,0.884-1.734,1.58-2.941,1.969
						c-0.365,0.122-0.753,0.21-1.15,0.276c-0.356,0.048-0.729,0.08-1.102,0.08h-259.346c-1.036,0-2.024-0.219-2.892-0.599
						c-1.718-0.754-2.981-2.164-3.306-3.825c-0.023-0.113-0.032-0.227-0.048-0.34c-0.009-0.072-0.017-0.153-0.017-0.235
						c-0.008-0.089-0.008-0.178-0.008-0.267v-13.676c0-0.089,0-0.178,0.008-0.267c0.008-0.171,0.024-0.349,0.057-0.511
						c0.462-2.536,3.078-4.488,6.205-4.488h259.346c0.372,0,0.745,0.024,1.102,0.081c0.397,0.057,0.785,0.146,1.15,0.268
						c1.207,0.396,2.229,1.093,2.941,1.977C1391.865,1576.795,1392.263,1577.808,1392.263,1578.893z"/>
					<path style="fill:#FFA412;" d="M1264.916,1597.834h-138.942c-0.931,0-1.806-0.219-2.575-0.599
						c-1.539-0.754-2.666-2.164-2.949-3.825c-0.023-0.113-0.032-0.227-0.048-0.34c-0.009-0.072-0.017-0.153-0.017-0.235
						c-0.008-0.089-0.008-0.178-0.008-0.267v-13.676c0-0.089,0-0.178,0.008-0.267c0.008-0.171,0.024-0.349,0.057-0.511
						c0.035-0.192,0.086-0.38,0.146-0.564c0.633-2.252,2.807-3.924,5.387-3.924h121.88c1.896,6.927,6.237,16.445,16.211,23.608
						C1264.341,1597.438,1264.623,1597.64,1264.916,1597.834z"/>
					<g>
						<rect x="1357.76" y="1573.624" style="fill:#FFA412;" width="2.947" height="24.211"/>
						<rect x="1347.782" y="1573.624" style="fill:#FFA412;" width="2.947" height="24.211"/>
						<rect x="1335.817" y="1573.624" style="fill:#FFA412;" width="2.948" height="24.211"/>
						<rect x="1317.478" y="1573.624" style="fill:#FFA412;" width="2.948" height="24.211"/>
						<rect x="1298.085" y="1573.624" style="fill:#FFA412;" width="2.948" height="24.211"/>
						<rect x="1268.354" y="1573.624" style="fill:#FFA412;" width="2.947" height="24.211"/>
						<rect x="1240.518" y="1573.624" style="fill:#FFA412;" width="2.947" height="24.211"/>
						<rect x="1215.66" y="1573.624" style="fill:#FFA412;" width="2.948" height="24.211"/>
						<rect x="1367.257" y="1573.624" style="fill:#FFA412;" width="2.947" height="24.211"/>
						<rect x="1373.531" y="1573.624" style="fill:#FFA412;" width="2.947" height="24.211"/>
						<rect x="1379.59" y="1573.624" style="fill:#FFA412;" width="2.947" height="24.211"/>
						<path style="fill:#FFA412;" d="M1387.096,1573.708v24.042c-0.36,0.055-0.729,0.084-1.105,0.084h-1.842v-24.211h1.842
							C1386.367,1573.623,1386.735,1573.652,1387.096,1573.708z"/>
						<path style="fill:#FFA412;" d="M1391.189,1575.951v19.556c-0.716,0.886-1.741,1.582-2.945,1.972v-23.5
							C1389.448,1574.369,1390.474,1575.065,1391.189,1575.951z"/>
					</g>
				</g>
				<g>
					<path style="fill:#FFB93E;" d="M1398.477,1554.686v13.667c0,1.094-0.397,2.099-1.077,2.941
						c-0.089,0.112-0.188,0.219-0.284,0.324c-0.494,0.526-1.102,0.972-1.79,1.304c-0.275,0.13-0.567,0.251-0.867,0.349
						c-0.372,0.122-0.753,0.211-1.15,0.268c-0.178,0.024-0.356,0.048-0.543,0.064s-0.381,0.024-0.566,0.024h-259.337
						c-3.136,0-5.753-1.961-6.215-4.488c-0.023-0.17-0.048-0.34-0.057-0.51v-14.219c0.162-2.567,2.528-4.658,5.525-4.958
						c0.243-0.024,0.494-0.041,0.746-0.041h259.337c0.186,0,0.38,0.009,0.566,0.025c0.187,0.016,0.365,0.031,0.543,0.064
						c0.397,0.057,0.778,0.146,1.15,0.267c1.199,0.39,2.228,1.087,2.941,1.969
						C1398.079,1552.579,1398.477,1553.592,1398.477,1554.686z"/>
					<path style="fill:#FFA412;" d="M1271.129,1573.627h-138.94c-2.574,0-4.745-1.67-5.39-3.908
						c-0.063-0.189-0.116-0.383-0.152-0.58c-0.023-0.17-0.048-0.34-0.057-0.51v-14.219c0.146-2.561,2.261-4.658,4.935-4.958
						c0.219-0.024,0.437-0.041,0.664-0.041h121.88c0,0.017,0.007,0.025,0.007,0.041
						C1256.028,1556.573,1260.565,1566.408,1271.129,1573.627z"/>
					<g>
						<rect x="1363.972" y="1549.413" style="fill:#FFA412;" width="2.947" height="24.21"/>
						<rect x="1353.994" y="1549.413" style="fill:#FFA412;" width="2.947" height="24.21"/>
						<rect x="1342.03" y="1549.413" style="fill:#FFA412;" width="2.947" height="24.21"/>
						<rect x="1323.689" y="1549.413" style="fill:#FFA412;" width="2.948" height="24.21"/>
						<rect x="1304.297" y="1549.413" style="fill:#FFA412;" width="2.947" height="24.21"/>
						<rect x="1274.566" y="1549.413" style="fill:#FFA412;" width="2.947" height="24.21"/>
						<rect x="1246.729" y="1549.413" style="fill:#FFA412;" width="2.946" height="24.21"/>
						<rect x="1221.873" y="1549.413" style="fill:#FFA412;" width="2.947" height="24.21"/>
						<rect x="1373.469" y="1549.413" style="fill:#FFA412;" width="2.947" height="24.21"/>
						<rect x="1379.743" y="1549.413" style="fill:#FFA412;" width="2.947" height="24.21"/>
						<rect x="1385.802" y="1549.413" style="fill:#FFA412;" width="2.947" height="24.21"/>
						<path style="fill:#FFA412;" d="M1393.308,1549.496v24.042c-0.36,0.056-0.728,0.084-1.106,0.084h-1.842v-24.211h1.842
							C1392.58,1549.411,1392.947,1549.44,1393.308,1549.496z"/>
						<path style="fill:#FFA412;" d="M1397.401,1551.739v19.556c-0.715,0.887-1.741,1.582-2.945,1.973v-23.501
							C1395.66,1550.157,1396.687,1550.854,1397.401,1551.739z"/>
					</g>
				</g>
				<g>
					<path style="fill:#FFB93E;" d="M1379.405,1530.511v13.667c0,1.094-0.388,2.099-1.069,2.94
						c-0.713,0.892-1.741,1.589-2.948,1.978c-0.365,0.121-0.754,0.21-1.144,0.267c-0.121,0.024-0.242,0.041-0.364,0.049h-0.049
						c-0.064,0.009-0.129,0.017-0.193,0.017c-0.057,0.009-0.105,0.009-0.17,0.016c-0.114,0-0.22,0.009-0.333,0.009h-259.336
						c-3.346,0-6.101-2.228-6.271-4.999c-0.008-0.089-0.008-0.179-0.008-0.275v-13.667c0-0.089,0-0.186,0.008-0.275
						c0-0.073,0.008-0.146,0.016-0.219c0.252-2.229,2.18-4.075,4.707-4.61c0.057-0.016,0.122-0.032,0.187-0.04
						c0.438-0.081,0.892-0.129,1.362-0.129h259.336c0.195,0,0.373,0.008,0.559,0.024c0.081,0.008,0.163,0.016,0.236,0.023
						c0.008,0,0.008,0,0.015,0h0.009c0.098,0.009,0.194,0.024,0.291,0.041c0.39,0.057,0.778,0.146,1.144,0.268
						c1.207,0.388,2.235,1.085,2.948,1.977C1379.018,1528.412,1379.405,1529.417,1379.405,1530.511z"/>
					<path style="fill:#FFA412;" d="M1252.058,1549.452h-138.933c-2.988,0-5.443-2.228-5.598-4.999
						c-0.008-0.089-0.008-0.179-0.008-0.275v-13.667c0-0.089,0-0.186,0.008-0.275c0-0.073,0.008-0.146,0.016-0.219
						c0.228-2.284,2.019-4.148,4.351-4.643c0.074-0.024,0.154-0.04,0.235-0.048c0.324-0.057,0.656-0.089,0.996-0.089h121.871
						c0.017,0.064,0.033,0.112,0.049,0.178c1.969,7.097,6.506,16.835,16.957,23.996
						C1252.018,1549.428,1252.042,1549.437,1252.058,1549.452z"/>
					<g>
						<rect x="1344.905" y="1525.239" style="fill:#FFA412;" width="2.947" height="24.212"/>
						<rect x="1334.928" y="1525.239" style="fill:#FFA412;" width="2.947" height="24.212"/>
						<rect x="1322.963" y="1525.239" style="fill:#FFA412;" width="2.947" height="24.212"/>
						<rect x="1304.623" y="1525.239" style="fill:#FFA412;" width="2.947" height="24.212"/>
						<rect x="1285.23" y="1525.239" style="fill:#FFA412;" width="2.947" height="24.212"/>
						<rect x="1255.5" y="1525.239" style="fill:#FFA412;" width="2.947" height="24.212"/>
						<rect x="1227.663" y="1525.239" style="fill:#FFA412;" width="2.946" height="24.212"/>
						<rect x="1202.807" y="1525.239" style="fill:#FFA412;" width="2.947" height="24.212"/>
						<rect x="1354.401" y="1525.239" style="fill:#FFA412;" width="2.948" height="24.212"/>
						<rect x="1360.677" y="1525.239" style="fill:#FFA412;" width="2.946" height="24.212"/>
						<rect x="1366.735" y="1525.239" style="fill:#FFA412;" width="2.947" height="24.212"/>
						<path style="fill:#FFA412;" d="M1374.241,1525.323v24.042c-0.36,0.055-0.728,0.085-1.107,0.085h-1.842v-24.212h1.842
							C1373.514,1525.238,1373.881,1525.269,1374.241,1525.323z"/>
						<path style="fill:#FFA412;" d="M1378.334,1527.566v19.556c-0.715,0.886-1.741,1.582-2.944,1.972v-23.499
							C1376.593,1525.984,1377.619,1526.681,1378.334,1527.566z"/>
					</g>
				</g>
				<g>
					<path style="fill:#FFB93E;" d="M1378.862,1506.474v13.667c0,1.094-0.396,2.099-1.069,2.941
						c-0.178,0.219-0.381,0.429-0.591,0.632c-0.648,0.583-1.45,1.054-2.357,1.345c-0.292,0.097-0.591,0.17-0.892,0.227h-0.009
						c-0.007,0-0.007,0-0.015,0c-0.082,0.017-0.155,0.032-0.236,0.041c-0.356,0.057-0.729,0.089-1.101,0.089h-259.346
						c-0.268,0-0.543-0.017-0.811-0.049c-0.104-0.008-0.21-0.024-0.308-0.04c-2.642-0.405-4.723-2.212-5.096-4.457
						c-0.024-0.153-0.041-0.299-0.049-0.453c-0.008-0.098-0.008-0.186-0.008-0.275v-13.667c0-0.098,0-0.187,0.008-0.275
						c0.008-0.17,0.032-0.341,0.057-0.511c0.462-2.527,3.079-4.488,6.206-4.488h259.346c0.161,0,0.331,0.008,0.494,0.017
						c0.024,0,0.048,0.009,0.064,0.009c0.048,0.007,0.097,0.007,0.146,0.007c0.072,0.009,0.153,0.017,0.235,0.032
						c0.057,0,0.105,0.008,0.161,0.025c0.397,0.057,0.787,0.146,1.151,0.267c0.219,0.073,0.43,0.154,0.632,0.244h0.008
						c0.811,0.355,1.515,0.858,2.074,1.458c0.08,0.089,0.162,0.178,0.234,0.267
						C1378.466,1504.367,1378.862,1505.38,1378.862,1506.474z"/>
					<path style="fill:#FFA412;" d="M1251.516,1525.415h-138.941c-0.104,0-0.219-0.009-0.324-0.009
						c-0.121-0.008-0.242-0.023-0.356-0.032c-2.511-0.3-4.52-2.163-4.86-4.505c-0.024-0.153-0.041-0.299-0.049-0.453
						c-0.008-0.098-0.008-0.186-0.008-0.275v-13.667c0-0.098,0-0.187,0.008-0.275c0.008-0.17,0.032-0.341,0.057-0.511
						c0.037-0.196,0.09-0.388,0.151-0.577c0.644-2.239,2.808-3.911,5.382-3.911h121.879c0.049,0.203,0.106,0.397,0.171,0.601
						c2.017,7.016,6.529,16.43,16.641,23.438C1251.346,1525.302,1251.435,1525.35,1251.516,1525.415z"/>
					<g>
						<rect x="1344.359" y="1501.202" style="fill:#FFA412;" width="2.948" height="24.21"/>
						<rect x="1334.383" y="1501.202" style="fill:#FFA412;" width="2.947" height="24.21"/>
						<rect x="1322.417" y="1501.202" style="fill:#FFA412;" width="2.948" height="24.21"/>
						<rect x="1304.078" y="1501.202" style="fill:#FFA412;" width="2.947" height="24.21"/>
						<rect x="1284.685" y="1501.202" style="fill:#FFA412;" width="2.948" height="24.21"/>
						<rect x="1254.955" y="1501.202" style="fill:#FFA412;" width="2.946" height="24.21"/>
						<rect x="1227.117" y="1501.202" style="fill:#FFA412;" width="2.948" height="24.21"/>
						<rect x="1202.261" y="1501.202" style="fill:#FFA412;" width="2.947" height="24.21"/>
						<rect x="1353.857" y="1501.202" style="fill:#FFA412;" width="2.947" height="24.21"/>
						<rect x="1360.131" y="1501.202" style="fill:#FFA412;" width="2.948" height="24.21"/>
						<rect x="1366.19" y="1501.202" style="fill:#FFA412;" width="2.947" height="24.21"/>
						<path style="fill:#FFA412;" d="M1373.696,1501.285v24.043c-0.36,0.055-0.729,0.084-1.106,0.084h-1.842v-24.211h1.842
							C1372.968,1501.201,1373.336,1501.229,1373.696,1501.285z"/>
						<path style="fill:#FFA412;" d="M1377.789,1503.528v19.556c-0.715,0.886-1.741,1.582-2.944,1.973v-23.501
							C1376.048,1501.947,1377.074,1502.643,1377.789,1503.528z"/>
					</g>
				</g>
				<g>
					<path style="fill:#FFB93E;" d="M1392.263,1482.857v13.667c0,1.095-0.397,2.107-1.077,2.95
						c-0.713,0.882-1.734,1.579-2.941,1.968c-0.365,0.122-0.753,0.211-1.15,0.268c-0.356,0.058-0.729,0.09-1.102,0.09h-259.346
						c-1.036,0-2.024-0.22-2.892-0.601c-1.718-0.753-2.981-2.162-3.306-3.824c-0.023-0.112-0.032-0.226-0.048-0.34
						c-0.009-0.081-0.017-0.154-0.017-0.234c-0.008-0.089-0.008-0.178-0.008-0.276v-13.667c0-0.089,0-0.186,0.008-0.275
						c0.008-0.17,0.024-0.34,0.057-0.511c0.462-2.527,3.078-4.487,6.205-4.487h259.346c0.372,0,0.745,0.032,1.102,0.089
						c0.397,0.057,0.785,0.146,1.15,0.268c1.207,0.388,2.229,1.085,2.941,1.977
						C1391.865,1480.76,1392.263,1481.765,1392.263,1482.857z"/>
					<path style="fill:#FFA412;" d="M1264.916,1501.8h-138.942c-0.931,0-1.806-0.22-2.575-0.601
						c-1.539-0.753-2.666-2.162-2.949-3.824c-0.023-0.112-0.032-0.226-0.048-0.34c-0.009-0.081-0.017-0.154-0.017-0.234
						c-0.008-0.089-0.008-0.178-0.008-0.276v-13.667c0-0.089,0-0.186,0.008-0.275c0.008-0.17,0.024-0.34,0.057-0.511
						c0.035-0.19,0.086-0.377,0.146-0.562c0.633-2.247,2.807-3.926,5.387-3.926h121.88c1.896,6.935,6.237,16.454,16.211,23.615
						C1264.341,1501.402,1264.623,1501.597,1264.916,1501.8z"/>
					<g>
						<rect x="1357.76" y="1477.588" style="fill:#FFA412;" width="2.947" height="24.211"/>
						<rect x="1347.782" y="1477.588" style="fill:#FFA412;" width="2.947" height="24.211"/>
						<rect x="1335.817" y="1477.588" style="fill:#FFA412;" width="2.948" height="24.211"/>
						<rect x="1317.478" y="1477.588" style="fill:#FFA412;" width="2.948" height="24.211"/>
						<rect x="1298.085" y="1477.588" style="fill:#FFA412;" width="2.948" height="24.211"/>
						<rect x="1268.354" y="1477.588" style="fill:#FFA412;" width="2.947" height="24.211"/>
						<rect x="1240.518" y="1477.588" style="fill:#FFA412;" width="2.947" height="24.211"/>
						<rect x="1215.66" y="1477.588" style="fill:#FFA412;" width="2.948" height="24.211"/>
						<rect x="1367.257" y="1477.588" style="fill:#FFA412;" width="2.947" height="24.211"/>
						<rect x="1373.531" y="1477.588" style="fill:#FFA412;" width="2.947" height="24.211"/>
						<rect x="1379.59" y="1477.588" style="fill:#FFA412;" width="2.947" height="24.211"/>
						<path style="fill:#FFA412;" d="M1387.096,1477.672v24.042c-0.36,0.055-0.729,0.085-1.105,0.085h-1.842v-24.211h1.842
							C1386.367,1477.588,1386.735,1477.616,1387.096,1477.672z"/>
						<path style="fill:#FFA412;" d="M1391.189,1479.914v19.557c-0.716,0.886-1.741,1.582-2.945,1.972v-23.5
							C1389.448,1478.333,1390.474,1479.029,1391.189,1479.914z"/>
					</g>
				</g>
				<g>
					<path style="fill:#FFB93E;" d="M1413.456,1458.643v13.676c0,1.085-0.397,2.09-1.069,2.933l-0.008,0.008
						c-0.089,0.113-0.186,0.218-0.284,0.324c-0.397,0.421-0.858,0.785-1.386,1.085c-0.258,0.146-0.534,0.284-0.825,0.397
						c-0.009,0-0.009,0.008-0.009,0.008c-0.138,0.057-0.283,0.113-0.437,0.162c-0.365,0.121-0.754,0.211-1.151,0.268
						c-0.356,0.057-0.729,0.081-1.102,0.081H1147.84c-3.126,0-5.743-1.952-6.205-4.48c-0.032-0.17-0.049-0.34-0.057-0.519
						c-0.008-0.089-0.008-0.178-0.008-0.267v-13.676c0-0.09,0-0.179,0.008-0.268c0.154-2.561,2.52-4.658,5.525-4.958
						c0.242-0.032,0.486-0.041,0.736-0.041h259.346c0.373,0,0.745,0.032,1.102,0.081c0.397,0.065,0.786,0.154,1.151,0.276
						c1.053,0.339,1.96,0.915,2.656,1.644c0.099,0.106,0.195,0.211,0.284,0.324l0.008,0.009
						C1413.059,1456.553,1413.456,1457.557,1413.456,1458.643z"/>
					<path style="fill:#FFA412;" d="M1286.108,1477.584h-138.94c-2.581,0-4.754-1.673-5.388-3.918
						c-0.06-0.185-0.11-0.371-0.146-0.563c-0.032-0.17-0.049-0.34-0.057-0.519c-0.008-0.089-0.008-0.178-0.008-0.267v-13.676
						c0-0.09,0-0.179,0.008-0.268c0.138-2.561,2.252-4.658,4.925-4.958c0.22-0.032,0.438-0.041,0.665-0.041h121.879
						c0,0.009,0.009,0.024,0.009,0.041C1271.007,1460.538,1275.544,1470.374,1286.108,1477.584z"/>
					<g>
						<rect x="1378.954" y="1453.376" style="fill:#FFA412;" width="2.947" height="24.212"/>
						<rect x="1368.977" y="1453.376" style="fill:#FFA412;" width="2.947" height="24.212"/>
						<rect x="1357.012" y="1453.376" style="fill:#FFA412;" width="2.947" height="24.212"/>
						<rect x="1338.672" y="1453.376" style="fill:#FFA412;" width="2.947" height="24.212"/>
						<rect x="1319.279" y="1453.376" style="fill:#FFA412;" width="2.947" height="24.212"/>
						<rect x="1289.549" y="1453.376" style="fill:#FFA412;" width="2.947" height="24.212"/>
						<rect x="1261.712" y="1453.376" style="fill:#FFA412;" width="2.946" height="24.212"/>
						<rect x="1236.854" y="1453.376" style="fill:#FFA412;" width="2.948" height="24.212"/>
						<rect x="1388.451" y="1453.376" style="fill:#FFA412;" width="2.947" height="24.212"/>
						<rect x="1394.726" y="1453.376" style="fill:#FFA412;" width="2.946" height="24.212"/>
						<rect x="1400.783" y="1453.376" style="fill:#FFA412;" width="2.948" height="24.212"/>
						<path style="fill:#FFA412;" d="M1408.29,1453.46v24.042c-0.36,0.056-0.729,0.085-1.106,0.085h-1.842v-24.212h1.842
							C1407.562,1453.375,1407.93,1453.405,1408.29,1453.46z"/>
						<path style="fill:#FFA412;" d="M1412.383,1455.703v19.557c-0.715,0.885-1.74,1.581-2.944,1.972v-23.5
							C1410.643,1454.121,1411.668,1454.817,1412.383,1455.703z"/>
					</g>
				</g>
				<g>
					<path style="fill:#FFB93E;" d="M1379.405,1434.476v13.667c0,1.094-0.388,2.1-1.069,2.941c-0.713,0.891-1.741,1.588-2.948,1.977
						c-0.365,0.122-0.754,0.211-1.144,0.268c-0.121,0.016-0.242,0.032-0.364,0.048h-0.049c-0.081,0.017-0.161,0.017-0.242,0.024
						c-0.049,0-0.097,0.008-0.146,0.008c-0.106,0-0.203,0.009-0.309,0.009h-259.336c-2.253,0-4.237-1.005-5.34-2.512
						c-0.543-0.729-0.874-1.579-0.932-2.487c-0.008-0.098-0.008-0.187-0.008-0.275v-13.667c0-0.097,0-0.187,0.008-0.275
						c0.139-2.243,1.977-4.132,4.448-4.764c0.575-0.153,1.19-0.235,1.823-0.235h259.336c0.113,0,0.219,0.008,0.333,0.008
						c0.057,0,0.113,0.01,0.161,0.017c0.211,0.009,0.414,0.033,0.615,0.065c0.39,0.057,0.778,0.146,1.144,0.267
						c0.186,0.057,0.364,0.122,0.534,0.203h0.008c0.688,0.283,1.305,0.672,1.815,1.142c0.008,0.009,0.016,0.017,0.024,0.033
						c0.023,0.023,0.048,0.04,0.072,0.064c0.178,0.162,0.341,0.34,0.494,0.526
						C1379.018,1432.369,1379.405,1433.382,1379.405,1434.476z"/>
					<path style="fill:#FFA412;" d="M1252.058,1453.417h-138.933c-1.952,0-3.686-0.956-4.683-2.39
						c-0.534-0.763-0.866-1.652-0.915-2.609c-0.008-0.098-0.008-0.187-0.008-0.275v-13.667c0-0.097,0-0.187,0.008-0.275
						c0.139-2.414,2.009-4.407,4.464-4.885c0.364-0.073,0.745-0.114,1.134-0.114h121.871c0.049,0.187,0.105,0.373,0.162,0.56
						c2.018,7.064,6.578,16.575,16.844,23.615C1252.018,1453.385,1252.042,1453.4,1252.058,1453.417z"/>
					<g>
						<rect x="1344.905" y="1429.204" style="fill:#FFA412;" width="2.947" height="24.21"/>
						<rect x="1334.928" y="1429.204" style="fill:#FFA412;" width="2.947" height="24.21"/>
						<rect x="1322.963" y="1429.204" style="fill:#FFA412;" width="2.947" height="24.21"/>
						<rect x="1304.623" y="1429.204" style="fill:#FFA412;" width="2.947" height="24.21"/>
						<rect x="1285.23" y="1429.204" style="fill:#FFA412;" width="2.947" height="24.21"/>
						<rect x="1255.5" y="1429.204" style="fill:#FFA412;" width="2.947" height="24.21"/>
						<rect x="1227.663" y="1429.204" style="fill:#FFA412;" width="2.946" height="24.21"/>
						<rect x="1202.807" y="1429.204" style="fill:#FFA412;" width="2.947" height="24.21"/>
						<rect x="1354.401" y="1429.204" style="fill:#FFA412;" width="2.948" height="24.21"/>
						<rect x="1360.677" y="1429.204" style="fill:#FFA412;" width="2.946" height="24.21"/>
						<rect x="1366.735" y="1429.204" style="fill:#FFA412;" width="2.947" height="24.21"/>
						<path style="fill:#FFA412;" d="M1374.241,1429.287v24.043c-0.36,0.055-0.728,0.084-1.107,0.084h-1.842v-24.211h1.842
							C1373.514,1429.203,1373.881,1429.231,1374.241,1429.287z"/>
						<path style="fill:#FFA412;" d="M1378.334,1431.53v19.556c-0.715,0.886-1.741,1.582-2.944,1.973v-23.501
							C1376.593,1429.948,1377.619,1430.645,1378.334,1431.53z"/>
					</g>
				</g>
				<g>
					<path style="fill:#FFB93E;" d="M1398.477,1410.82v13.672c0,1.09-0.396,2.101-1.075,2.942c-0.715,0.886-1.741,1.581-2.945,1.973
						c-0.368,0.122-0.753,0.212-1.148,0.271c-0.36,0.056-0.728,0.084-1.106,0.084h-259.34c-1.006,0-1.959-0.2-2.803-0.559
						c-1.891-0.795-3.243-2.377-3.447-4.224c-0.007-0.07-0.014-0.143-0.018-0.216c-0.004-0.09-0.007-0.181-0.007-0.271v-13.672
						c0-0.09,0.003-0.181,0.007-0.271c0.156-2.567,2.524-4.66,5.525-4.96c0.243-0.027,0.489-0.038,0.742-0.038h259.34
						c0.379,0,0.746,0.028,1.106,0.084c0.396,0.058,0.78,0.148,1.148,0.271c1.204,0.391,2.23,1.086,2.945,1.973
						C1398.08,1408.721,1398.477,1409.731,1398.477,1410.82z"/>
					<path style="fill:#FFA412;" d="M1271.127,1429.762h-138.938c-0.898,0-1.747-0.2-2.5-0.559
						c-1.689-0.795-2.894-2.377-3.077-4.224c-0.007-0.07-0.014-0.143-0.018-0.216c-0.004-0.09-0.007-0.181-0.007-0.271v-13.672
						c0-0.09,0.003-0.181,0.007-0.271c0.139-2.563,2.254-4.66,4.933-4.96c0.215-0.027,0.437-0.038,0.662-0.038h121.876
						c0.004,0.011,0.007,0.026,0.011,0.038c1.901,6.939,6.26,16.456,16.253,23.613
						C1270.589,1429.393,1270.856,1429.578,1271.127,1429.762z"/>
					<g>
						<rect x="1363.972" y="1405.552" style="fill:#FFA412;" width="2.947" height="24.21"/>
						<rect x="1353.994" y="1405.552" style="fill:#FFA412;" width="2.947" height="24.21"/>
						<rect x="1342.03" y="1405.552" style="fill:#FFA412;" width="2.947" height="24.21"/>
						<rect x="1323.689" y="1405.552" style="fill:#FFA412;" width="2.948" height="24.21"/>
						<rect x="1304.297" y="1405.552" style="fill:#FFA412;" width="2.947" height="24.21"/>
						<rect x="1274.566" y="1405.552" style="fill:#FFA412;" width="2.947" height="24.21"/>
						<rect x="1246.729" y="1405.552" style="fill:#FFA412;" width="2.946" height="24.21"/>
						<rect x="1221.873" y="1405.552" style="fill:#FFA412;" width="2.947" height="24.21"/>
						<rect x="1373.469" y="1405.552" style="fill:#FFA412;" width="2.947" height="24.21"/>
						<rect x="1379.743" y="1405.552" style="fill:#FFA412;" width="2.947" height="24.21"/>
						<rect x="1385.802" y="1405.552" style="fill:#FFA412;" width="2.947" height="24.21"/>
						<path style="fill:#FFA412;" d="M1393.308,1405.635v24.042c-0.36,0.056-0.728,0.084-1.106,0.084h-1.842v-24.21h1.842
							C1392.58,1405.551,1392.947,1405.579,1393.308,1405.635z"/>
						<path style="fill:#FFA412;" d="M1397.401,1407.878v19.556c-0.715,0.887-1.741,1.582-2.945,1.973v-23.501
							C1395.66,1406.297,1396.687,1406.992,1397.401,1407.878z"/>
					</g>
				</g>
				<g>
					<path style="fill:#FFB93E;" d="M1406.593,1386.647v13.673c0,1.089-0.396,2.1-1.075,2.941c-0.715,0.886-1.741,1.582-2.945,1.972
						c-0.367,0.122-0.753,0.213-1.148,0.271c-0.121,0.017-0.242,0.034-0.363,0.047c-0.065,0.005-0.136,0.011-0.205,0.017
						c-0.065,0.006-0.135,0.01-0.205,0.012c-0.11,0.006-0.222,0.01-0.332,0.01h-259.341c-3.344,0-6.098-2.226-6.267-4.999
						c-0.004-0.09-0.008-0.181-0.008-0.271v-13.673c0-0.091,0.004-0.181,0.008-0.271c0.169-2.772,2.923-4.998,6.267-4.998h259.341
						c0.378,0,0.745,0.029,1.105,0.085c0.396,0.059,0.781,0.148,1.148,0.271c1.204,0.391,2.23,1.087,2.945,1.972
						C1406.197,1384.547,1406.593,1385.558,1406.593,1386.647z"/>
					<path style="fill:#FFA412;" d="M1279.243,1405.59h-138.938c-2.982,0-5.441-2.226-5.594-4.999
						c-0.004-0.09-0.008-0.181-0.008-0.271v-13.673c0-0.091,0.004-0.181,0.008-0.271c0.152-2.772,2.611-4.998,5.594-4.998h121.876
						c1.942,7.116,6.466,16.949,17.008,24.174C1279.205,1405.563,1279.226,1405.578,1279.243,1405.59z"/>
					<g>
						<rect x="1372.088" y="1381.378" style="fill:#FFA412;" width="2.947" height="24.212"/>
						<rect x="1362.111" y="1381.378" style="fill:#FFA412;" width="2.947" height="24.212"/>
						<rect x="1350.146" y="1381.378" style="fill:#FFA412;" width="2.947" height="24.212"/>
						<rect x="1331.807" y="1381.378" style="fill:#FFA412;" width="2.948" height="24.212"/>
						<rect x="1312.414" y="1381.378" style="fill:#FFA412;" width="2.947" height="24.212"/>
						<rect x="1282.684" y="1381.378" style="fill:#FFA412;" width="2.946" height="24.212"/>
						<rect x="1254.846" y="1381.378" style="fill:#FFA412;" width="2.948" height="24.212"/>
						<rect x="1229.99" y="1381.378" style="fill:#FFA412;" width="2.947" height="24.212"/>
						<rect x="1381.586" y="1381.378" style="fill:#FFA412;" width="2.946" height="24.212"/>
						<rect x="1387.859" y="1381.378" style="fill:#FFA412;" width="2.948" height="24.212"/>
						<rect x="1393.919" y="1381.378" style="fill:#FFA412;" width="2.946" height="24.212"/>
						<path style="fill:#FFA412;" d="M1401.425,1381.462v24.042c-0.361,0.056-0.729,0.084-1.106,0.084h-1.842v-24.211h1.842
							C1400.696,1381.377,1401.063,1381.407,1401.425,1381.462z"/>
						<path style="fill:#FFA412;" d="M1405.518,1383.705v19.557c-0.715,0.885-1.741,1.581-2.945,1.972v-23.5
							C1403.776,1382.123,1404.803,1382.819,1405.518,1383.705z"/>
					</g>
				</g>
			</g>
			<g>
				<path style="fill:#FFEDDC;" d="M1324.387,1243.407c0,0-13.621,19.177-26.108,19.443c-12.488,0.267-31.487-8.889-31.487-8.889
					s-11.467-25.554-3.689-35.553c0,0,7.8-3.423,15.955,2.621c1.4,1.044,2.821,2.356,4.221,4.045
					c1.979,2.377,4.201,3.732,6.557,4.443c8.91,2.711,19.488-3.666,23.442,2.489c2.312,3.577,4.822,6.267,6.889,8.155
					C1322.609,1242.341,1324.387,1243.407,1324.387,1243.407z"/>
				<path style="fill:#FFEDDC;" d="M1146.805,1381.733c0,0,48.145-116.661,134.808-118.883c0,0,79.995,8.889,84.439,118.883
					H1146.805z"/>
				<path style="fill:#DB6A1D;" d="M1257.87,1266.413c0,0,34.737,7.724,45.454,3.186c0,0,1.619-14.525-13.009-12.488
					c-10.013,1.394-16.534-3.418-20.369-5.37C1264.518,1248.978,1256.428,1260.337,1257.87,1266.413z"/>
				<path style="fill:#E5C1A1;" d="M1288.101,1244.519c-2.223,1.666-9.044-23.488-9.044-23.488c1.4,1.044,2.821,2.356,4.221,4.045
					c1.979,2.377,4.201,3.732,6.557,4.443C1289.856,1230.252,1290.256,1242.896,1288.101,1244.519z"/>
				<path style="fill:#E5C1A1;" d="M1320.165,1240.163c-0.489,0.288-16.555,9.91-18.731,9.91c-2.223,0,11.843-18.065,11.843-18.065
					C1315.588,1235.585,1318.099,1238.274,1320.165,1240.163z"/>
				<path style="fill:#F9DDBF;" d="M1193.838,1349.143c-0.889-0.762,34.073-51.479,43.702-51.85
					c9.63-0.371,31.264,11.11,46.927,12.592c15.662,1.481,30.847-2.963,33.81,6.296s11.111,42.084,6.11,47.337
					C1319.388,1368.771,1213.063,1365.565,1193.838,1349.143z"/>
			</g>
		</g>
		<path style="opacity:0.5;fill:#E2810E;" d="M1226.766,1525.237c-0.009,0.064-0.009,0.121-0.017,0.178
			c-0.454,8.126-1.758,16.162-3.889,23.996c0,0.009-0.008,0.025-0.008,0.041c-0.309,1.134-0.633,2.269-0.981,3.395
			c-2.17,7.146-5.03,14.104-8.546,20.78c-4.415,8.385-9.86,16.324-16.292,23.608c-0.171,0.202-0.349,0.404-0.526,0.599
			c-8.037,9.001-17.572,16.997-28.493,23.615c-2.302,1.402-4.659,2.739-7.081,4.011c-1.637,0.859-3.281,1.67-4.934,2.455
			c-1.58,0.915-3.249,1.701-4.82,2.665c-4.569,2.796-10.272,5.016-16.479,6.781v-10.645c0-0.09,0.01-0.18,0.01-0.269
			c0.007-0.178,0.032-0.349,0.056-0.519c0.036-0.197,0.09-0.39,0.151-0.58c0.646-2.236,2.815-3.9,5.39-3.9h-27.731
			c-2.574,0-4.738-1.671-5.382-3.909c-0.062-0.19-0.114-0.381-0.151-0.578c-0.024-0.17-0.049-0.341-0.057-0.511
			c-0.008-0.088-0.008-0.178-0.008-0.275v-13.667c0-0.089,0-0.187,0.008-0.274c0.008-0.171,0.032-0.341,0.057-0.512
			c0.037-0.196,0.09-0.388,0.151-0.578c0.644-2.238,2.808-3.909,5.382-3.909h10.824c-1.539-0.754-2.666-2.164-2.949-3.825
			c-0.023-0.113-0.032-0.227-0.048-0.34c-0.009-0.072-0.017-0.153-0.017-0.235c-0.008-0.089-0.008-0.178-0.008-0.267v-13.676
			c0-0.089,0-0.178,0.008-0.267c0.008-0.171,0.024-0.349,0.057-0.511c0.035-0.192,0.086-0.38,0.146-0.564
			c0.633-2.252,2.807-3.924,5.387-3.924h6.215c-2.574,0-4.745-1.67-5.39-3.908c-0.063-0.189-0.116-0.383-0.152-0.58
			c-0.023-0.17-0.048-0.34-0.057-0.51v-14.219c0.146-2.561,2.261-4.658,4.935-4.958h-18.399c-2.988,0-5.443-2.228-5.598-4.999
			c-0.008-0.089-0.008-0.179-0.008-0.275v-13.667c0-0.089,0-0.186,0.008-0.275c0-0.073,0.008-0.146,0.016-0.219
			c0.228-2.284,2.019-4.148,4.351-4.643c-2.511-0.3-4.52-2.163-4.86-4.505c-0.024-0.153-0.041-0.299-0.049-0.453
			c-0.008-0.098-0.008-0.186-0.008-0.275v-13.667c0-0.098,0-0.187,0.008-0.275c0.008-0.17,0.032-0.341,0.057-0.511
			c0.037-0.196,0.09-0.388,0.151-0.577c0.644-2.239,2.808-3.911,5.382-3.911h10.824c-1.539-0.753-2.666-2.162-2.949-3.824
			c-0.023-0.112-0.032-0.226-0.048-0.34c-0.009-0.081-0.017-0.154-0.017-0.234c-0.008-0.089-0.008-0.178-0.008-0.276v-13.667
			c0-0.089,0-0.186,0.008-0.275c0.008-0.17,0.024-0.34,0.057-0.511c0.035-0.19,0.086-0.377,0.146-0.562
			c0.633-2.247,2.807-3.926,5.387-3.926h21.194c-2.581,0-4.754-1.673-5.388-3.918c-0.06-0.185-0.11-0.371-0.146-0.563
			c-0.032-0.17-0.049-0.34-0.057-0.519c-0.008-0.089-0.008-0.178-0.008-0.267v-13.676c0-0.09,0-0.179,0.008-0.268
			c0.138-2.561,2.252-4.658,4.925-4.958h-33.378c-1.952,0-3.686-0.956-4.683-2.39l0.017-0.122l3.517-21.469l0.016-0.121
			l5.008-30.633c5.808,0.778,11.552,1.937,17.183,3.46c0.332,0.089,0.656,0.178,0.988,0.268c0.017,0.008,0.04,0.016,0.065,0.023
			c3.281,0.916,6.521,1.953,9.713,3.12c0.033,0.008,0.057,0.016,0.089,0.032c14.696,5.354,28.388,13.302,40.265,23.615
			c0.211,0.179,0.422,0.365,0.624,0.56c6.173,5.42,11.844,11.495,16.884,18.188c1.013,1.327,1.992,2.681,2.94,4.058
			c0.316,0.454,0.633,0.907,0.932,1.369c0.016,0.009,0.024,0.024,0.024,0.041c1.53,2.261,2.98,4.577,4.359,6.959
			c3.248,5.614,5.978,11.366,8.206,17.208c2.973,7.752,5.056,15.659,6.287,23.615c0.039,0.203,0.064,0.397,0.097,0.601
			C1226.831,1509.617,1227.187,1517.467,1226.766,1525.237z"/>
		<g>
			
				<ellipse transform="matrix(0.7071 -0.7071 0.7071 0.7071 -756.1016 1200.0942)" style="fill:#E2810E;" cx="1070.591" cy="1512.742" rx="127.563" ry="127.563"/>
			<path style="fill:#FFB93E;" d="M1127.22,1627.047c-1.571,0.959-3.168,1.886-4.793,2.782c-0.55,0.304-1.1,0.603-1.649,0.891
				c-1.258,0.67-2.516,1.314-3.782,1.943c-60.747,29.833-134.841,6.936-167.865-52.968c-31.5-57.137-14.568-127.909,37.115-165.072
				c4.122-2.965,8.46-5.715,13.018-8.225c1.635-0.9,3.285-1.765,4.94-2.582c1.608-0.802,3.232-1.566,4.861-2.289
				c4.992-2.227,10.068-4.103,15.192-5.637c7.616-2.295,15.349-3.84,23.097-4.657c24.028-2.546,48.205,1.845,69.642,12.332
				c22.745,11.12,42.411,29.11,55.564,52.966C1205.673,1516.607,1185.27,1591.739,1127.22,1627.047z"/>
			<g>
				<path style="fill:#FFA412;" d="M1061.735,1633.785c-10.666,0-21.394-1.508-31.924-4.554
					c-29.327-8.484-53.597-27.882-68.335-54.618c-14.739-26.737-18.184-57.613-9.699-86.941
					c8.483-29.327,27.881-53.596,54.617-68.334c55.193-30.427,124.851-10.275,155.276,44.918
					c30.425,55.193,10.274,124.85-44.919,155.275C1099.615,1628.978,1080.775,1633.785,1061.735,1633.785z M1061.387,1408.237
					c-18.142,0-36.524,4.44-53.504,13.801c-26.015,14.341-44.889,37.953-53.143,66.491c-8.256,28.536-4.904,58.58,9.436,84.596
					c14.342,26.016,37.956,44.89,66.492,53.145c28.536,8.255,58.58,4.904,84.596-9.438c53.704-29.605,73.312-97.383,43.706-151.088
					C1138.726,1429.019,1100.625,1408.237,1061.387,1408.237z"/>
			</g>
			<g>
				<path style="fill:#FFA412;" d="M1117.785,1530.537c-0.251-0.628-0.519-1.236-0.79-1.833c-2.07-4.547-4.646-8.235-7.737-11.054
					c-3.495-3.185-7.555-5.574-12.181-7.167c-4.626-1.592-9.785-2.562-15.475-2.907c-5.694-0.351-11.892-0.43-18.586-0.24
					c-4.139,0.125-7.674,0.052-10.614-0.215c-2.933-0.268-5.426-0.813-7.469-1.635c-2.049-0.822-3.709-1.948-4.987-3.379
					c-1.278-1.425-2.332-3.17-3.17-5.228c-0.839-2.06-1.314-4.103-1.44-6.13c-0.126-2.021,0.178-3.944,0.906-5.768
					c0.729-1.817,1.911-3.499,3.558-5.039c1.639-1.546,3.808-2.865,6.505-3.961c4.977-2.021,9.623-1.975,13.936,0.132
					c4.312,2.111,7.82,6.505,10.535,13.186l25.987-10.551c-2.263-5.563-5.097-10.269-8.507-14.108
					c-3.405-3.834-7.245-6.799-11.52-8.895c-4.27-2.09-8.922-3.315-13.956-3.672c-5.028-0.356-10.263,0.178-15.684,1.604
					l-7.36-18.127l-14.386,5.842l7.256,17.874c-5.191,2.692-9.592,5.825-13.207,9.398c-3.608,3.577-6.385,7.443-8.323,11.604
					c-1.944,4.164-2.96,8.533-3.06,13.111c-0.094,4.579,0.817,9.236,2.74,13.967c2.216,5.458,5.07,9.78,8.565,12.965
					c3.494,3.186,7.549,5.563,12.164,7.125c4.615,1.565,9.775,2.504,15.485,2.808c5.711,0.309,11.922,0.304,18.634-0.021
					c3.892-0.221,7.271-0.2,10.136,0.067c2.866,0.262,5.339,0.812,7.429,1.65c2.085,0.844,3.819,2.017,5.202,3.53
					c1.383,1.515,2.551,3.442,3.499,5.778c0.839,2.064,1.253,4.112,1.241,6.16c-0.005,2.049-0.466,4.003-1.388,5.868
					c-0.916,1.865-2.294,3.594-4.127,5.181c-1.835,1.587-4.16,2.949-6.979,4.097c-2.457,0.995-4.998,1.655-7.628,1.979
					c-2.63,0.32-5.191,0.063-7.695-0.77s-4.846-2.347-7.024-4.542c-2.185-2.19-4.082-5.265-5.685-9.22l-25.982,10.551
					c2.708,6.679,6.118,11.98,10.221,15.888c4.101,3.914,8.591,6.716,13.463,8.397c4.877,1.688,9.974,2.426,15.296,2.206
					c5.322-0.215,10.577-1.079,15.759-2.604l6.709,16.538l14.297-5.805l-6.747-16.616c5.191-2.693,9.639-5.8,13.343-9.314
					c3.431-3.253,6.113-6.753,8.052-10.514c0.156-0.305,0.309-0.608,0.455-0.917c1.96-4.102,3.008-8.45,3.133-13.044
					C1120.709,1540.182,1119.776,1535.436,1117.785,1530.537z"/>
			</g>
		</g>
	</g>
	<g>
		<path style="fill:#FFB27D;" d="M638.762,1051.702c0,0-2.161-21.467,9.065-20.731c11.228,0.734,14.199,5.884,12.945,10.01
			c-1.255,4.126-12.173,17.773-12.173,17.773L638.762,1051.702z"/>
		<path style="fill:#739AF0;" d="M463.836,1094.719c0,0,12.427,14.602,39.152,31.455c2.532,1.6,5.179,3.211,7.972,4.831
			c10.376,6.047,22.553,12.239,36.612,18.014c1.547,0.639,3.367,1.339,5.407,2.071c16.016,5.785,45.482,13.986,63.747,14.718
			c1.59,0.063,3.097,0.063,4.498,0.011c27.793-1.12,31.183-108.999,31.183-108.999s-3.097-10.795-17.375-8.075
			c0,0-21.685,60.922-29.457,65.891c-6.903,4.414-46.58-55.73-80.733-59.938C501.851,1051.864,463.836,1094.719,463.836,1094.719z"
			/>
		<path style="fill:#132642;" d="M538.506,1620.076c0,0-2.053,23.747,2.968,26.219l64.242-0.132c0,0,0-7.414-10.318-9.062
			c-10.318-1.648-28.445-7.689-31.514-21.145C560.816,1602.502,538.506,1620.076,538.506,1620.076z"/>
		<path style="fill:#2A4E96;" d="M585.67,1333.366c-0.317,15.529-1.063,31.546-2.524,45.94
			c-6.939,68.307-9.376,150.836-10.374,166.747c-1.728,27.621-7.186,71.747-7.186,71.747s-10.822,10.273-31.918,5.371
			c0,0-17.478-63.555-21.383-130.476c-0.061-1.098-0.121-2.201-0.177-3.306c-0.454-8.847-0.926-18.964-1.41-29.872
			c-3.215-73.067-6.706-181.609-6.706-181.609l80.614-18.931C584.606,1258.979,586.461,1294.655,585.67,1333.366z"/>
		<path style="fill:#233862;" d="M585.67,1333.366c-20.431,35.249-59.372,100.189-74.972,126.152
			c-3.215-73.067-6.706-181.609-6.706-181.609l80.614-18.931C584.606,1258.979,586.461,1294.655,585.67,1333.366z"/>
		<path style="fill:#6385DB;" d="M552.979,1151.09c16.016,5.785,45.482,13.986,63.747,14.718c-2.794-0.522-23.129-4.55-30.648-13.63
			c-8.077-9.76-21.675-36.267-32.491-25.451C548.492,1131.822,549.988,1141.885,552.979,1151.09z"/>
		<path style="fill:#FFB27D;" d="M417.521,1321.884c0,0-5.003,19.622-4.183,23.982c0.819,4.36,5.705,19.127,8.751,22.792
			s3.17-15.927,5.195-19.004c2.026-3.077,0.928,7.314,2.552,8.164c1.624,0.851,4.33-7.87,5.536-10.963
			c1.205-3.092-4.33-13.854-4.84-21.57C430.023,1317.569,417.521,1321.884,417.521,1321.884z"/>
		<path style="fill:#132642;" d="M378.473,1593.088c0,0-11.434,10.435-9.203,17.849c2.231,7.414,12.549,12.356,13.943,21.419
			c1.395,9.062,6.972,14.004,11.992,14.004c5.02,0,23.933,0,23.933,0s3.694-6.377-5.229-8.299
			c-8.924-1.922-12.289-12.57-11.732-22.456c0.559-9.886-0.837-23.066-0.837-23.066l-18.963-4.394L378.473,1593.088z"/>
		<path style="fill:#2A4E96;" d="M571.903,1279.562c0,0-75.465,161.465-115.623,232.312s-52.708,90.618-52.708,90.618
			s-23.007-9.062-25.099-15.24c0,0,15.357-136.773,42.25-170.114c15.196-18.84,33.047-75.378,33.884-95.148
			c0.836-19.771,18.467-66.961,18.467-66.961L571.903,1279.562z"/>
		<path style="fill:#739AF0;" d="M585.965,1271.16c0,0-24.572,26.446-66.328,34.434c-18.326,3.507-55.522,6.896-64.75-6.151
			c-2.166-3.063-2.186-7.598-1.705-14.68c1.242-18.404,5.872-53.987-15.029-125.491c-1.946-6.652-3.258-13.031-4.018-19.113
			c-4.563-36.58-4.066-64.196,27.671-78.95c47.555-22.104,67.074-3.917,67.074-3.917s25.292,11.82,36.85,46.263
			C588.838,1172.45,585.965,1271.16,585.965,1271.16z"/>
		<path style="fill:#FFB27D;" d="M490.354,1055.136c8.009,5.685,22.09,9.043,35.523,2.325c1.033-0.515,0.904-7.62,0.645-14.596
			c-0.257-6.848-0.903-13.564-0.903-13.564l-16.921-11.107l-16.147-10.593C494.487,1044.028,486.737,1052.553,490.354,1055.136z"/>
		<path style="fill:#ED985F;" d="M495.393,1022.64c0,0,10.979,16.479,31.13,20.226c-0.257-6.848-0.988-14.389-0.988-14.389
			l-16.836-10.283L495.393,1022.64z"/>
		<path style="fill:#FFB27D;" d="M540.773,1025.019c0,0-40.938,15.277-50.047-9.946c-9.108-25.223-20.527-40.238,5.225-51.058
			c25.753-10.821,34.334-3.015,39.456,4.663C540.53,976.356,551.188,1020.394,540.773,1025.019z"/>
		<path style="fill:#2C3A64;" d="M465.225,966.848c-0.472-0.363-1.427-0.544-3.42-0.262c0,0,1.381-1.297,3.478-1.765
			c-0.13-2.823,0.37-7.963,4.855-10.074c0,0-2.268,1.853-2.024,4.833c4.356-6.691,15.258-13.09,48.185-16.935
			c43.395-5.068,34.717,25.07,29.829,29.425s-20.578-1.836-30.723,1.018c-10.145,2.854-9.163,18.134-12.255,20.869
			c-3.093,2.733-2.433-1.151-7.585-2.355c-5.153-1.203-4.056,6.725-1.682,11.551c2.374,4.827-2.799,12.834-2.799,12.834
			s0,0-7.967-5.777c-7.965-5.775-20.074-34.517-18.351-41.494C464.921,968.1,465.069,967.477,465.225,966.848z"/>
		<path style="fill:#6385DB;" d="M453.182,1284.763c1.242-18.404,5.872-53.987-15.029-125.491
			c-1.946-6.652-3.258-13.031-4.018-19.113l0.005-0.002c15.529-5.121,43.824,6.271,43.824,6.271S484.613,1240.948,453.182,1284.763z
			"/>
		<path style="fill:#739AF0;" d="M453.242,1065.99c0,0-19.108,6.949-31.296,57.541c-8.053,33.427-22.879,82.561-24.55,97.999
			s16.949,105.833,16.949,105.833s2.626,1.914,9.061,0.627c6.157-1.23,9.023-5.396,9.023-5.396s4.452-60.248,3.303-88.695
			c-0.478-11.818,54.713-86.556,84.499-96.183C531.929,1133.936,453.242,1065.99,453.242,1065.99z"/>
		<path style="fill:#AEC3FF;" d="M720.519,1000.5c0,0-55.23-1.569-118.964,10.163l-6.658-16.779l-7.301-18.384
			c0,0,63.982-27.545,102.444-65.904L720.519,1000.5z"/>
		<path style="fill:#F99746;" d="M689.164,908.706l31.71,93.602l0,0c4.636-1.373,7.172-6.354,5.556-10.912l-27.908-78.646
			C697.17,908.94,692.866,907.08,689.164,908.706L689.164,908.706z"/>
		<path style="fill:#F99746;" d="M658.896,1070.168L658.896,1070.168c-6.166,1.233-12.218-2.804-13.451-8.97l-10.917-54.628
			c-1.233-6.164,2.804-12.218,8.97-13.45l0,0c6.165-1.231,12.218,2.805,13.449,8.97l10.918,54.628
			C669.097,1062.884,665.061,1068.936,658.896,1070.168z"/>
		<path style="fill:#739AF0;" d="M720.519,1000.5c0,0-55.23-1.569-118.964,10.163l-6.658-16.779
			C654.781,981.655,720.519,1000.5,720.519,1000.5z"/>
		<path style="fill:#F99746;" d="M619.176,1007.289l-17.257,3.035c0.264,0.01-16.03,3.171-21.372-11.271
			c-0.488-0.986-0.803-1.964-1.023-3.117c-4.151-18.001,5.732-21.317,5.732-21.317l22.209-8.654l7.058,24.973c0,0,0,0-0.004,0.088
			L619.176,1007.289z"/>
		<path style="fill:#ED7D2B;" d="M619.176,1007.289l-17.257,3.035c0.264,0.01-16.03,3.171-21.372-11.271
			c9.765-7.102,33.976-8.116,33.976-8.116s0,0-0.004,0.088L619.176,1007.289z"/>
		<path style="fill:#FFB27D;" d="M657.423,1017.269c0,0-8.443,3.364-6.896,7.082c1.547,3.718,12.284,8.83,13.977,5.896
			C666.197,1027.313,662.733,1014.133,657.423,1017.269z"/>
		<path style="fill:#FFB27D;" d="M638.599,1048.32c0,0-1.594-8.637-1.692-12.605c-0.1-3.967-0.567-7.207,0.368-7.32
			c0.935-0.112,1.611,0.618,1.992,1.895c0.382,1.276,1.844,9.188,1.844,9.188l-0.736,7.637L638.599,1048.32z"/>
	</g>
	<g>
		<g>
			<path style="fill:#AEC3FF;" d="M1501.645,528.526c0-39.079,31.68-70.758,70.759-70.758c39.078,0,70.758,31.679,70.758,70.758
				s-31.68,70.759-70.758,70.759C1533.324,599.285,1501.645,567.606,1501.645,528.526z"/>
		</g>
		<g>
			<path style="fill:#739AF0;" d="M1549.692,500.138c0-12.542,10.168-22.71,22.711-22.71s22.71,10.168,22.71,22.71
				c0,12.543-10.167,22.711-22.71,22.711S1549.692,512.681,1549.692,500.138z"/>
			<path style="fill:#739AF0;" d="M1572.403,522.849c-21.95,0-39.743,17.793-39.743,39.743h79.486
				C1612.146,540.642,1594.353,522.849,1572.403,522.849z"/>
		</g>
	</g>
	<g>
		<g>
			
				<ellipse transform="matrix(0.7071 -0.7071 0.7071 0.7071 275.9084 1193.8563)" style="fill:#AEC3FF;" cx="1579.066" cy="263.877" rx="122.544" ry="122.544"/>
		</g>
		<g>
			<path style="fill:#739AF0;" d="M1539.734,214.712c0-21.723,17.609-39.332,39.332-39.332c21.722,0,39.331,17.609,39.331,39.332
				c0,21.722-17.609,39.331-39.331,39.331C1557.344,254.044,1539.734,236.434,1539.734,214.712z"/>
			<path style="fill:#739AF0;" d="M1579.066,254.044c-38.015,0-68.831,30.816-68.831,68.83h137.661
				C1647.896,284.86,1617.08,254.044,1579.066,254.044z"/>
		</g>
	</g>
	<g>
		<g>
			<circle style="fill:#AEC3FF;" cx="1759.473" cy="425.436" r="76.401"/>
		</g>
		<g>
			<path style="fill:#739AF0;" d="M1729.997,390.934c0-13.543,10.979-24.522,24.522-24.522c13.542,0,24.521,10.979,24.521,24.522
				c0,13.542-10.979,24.521-24.521,24.521C1740.977,415.456,1729.997,404.477,1729.997,390.934z"/>
			<path style="fill:#739AF0;" d="M1754.52,415.456c-23.701,0-42.913,19.212-42.913,42.912h85.825
				C1797.432,434.668,1778.218,415.456,1754.52,415.456z"/>
		</g>
	</g>
	<g>
		<g>
			<path style="fill:#FFB93E;" d="M2001.976,1629.434c1.476,0.9,2.976,1.77,4.499,2.61c0.518,0.286,1.033,0.566,1.551,0.837
				c1.18,0.629,2.359,1.234,3.549,1.824c57.025,28.006,126.58,6.51,157.581-49.722c29.569-53.637,13.675-120.074-34.842-154.959
				c-3.87-2.782-7.942-5.365-12.22-7.721c-1.535-0.846-3.084-1.656-4.639-2.424c-1.509-0.753-3.033-1.471-4.563-2.149
				c-4.687-2.09-9.452-3.851-14.262-5.291c-7.149-2.154-14.408-3.605-21.682-4.372c-22.557-2.39-45.252,1.731-65.375,11.576
				c-21.352,10.439-39.813,27.327-52.16,49.723C1928.33,1525.761,1947.484,1596.288,2001.976,1629.434z"/>
			<g>
				<path style="fill:#FFA412;" d="M2011.052,1623.74c-52.563-28.976-71.753-95.313-42.778-147.875
					c28.976-52.564,95.312-71.753,147.877-42.778c52.563,28.977,71.752,95.313,42.776,147.876
					c-19.815,35.948-57.101,56.284-95.51,56.284C2045.664,1637.247,2027.668,1632.9,2011.052,1623.74z M1973.533,1478.765
					c-27.377,49.663-9.245,112.34,40.419,139.717c49.662,27.376,112.339,9.244,139.716-40.418
					c27.376-49.663,9.245-112.34-40.417-139.717c-15.702-8.655-32.7-12.762-49.478-12.762
					C2027.488,1425.585,1992.255,1444.804,1973.533,1478.765z"/>
			</g>
			<g>
				<path style="fill:#FFA412;" d="M2008.207,1552.197c0.117,4.313,1.101,8.395,2.939,12.245c0.139,0.29,0.281,0.575,0.428,0.86
					c1.82,3.531,4.338,6.815,7.561,9.869c3.476,3.3,7.65,6.217,12.523,8.744l-6.334,15.599l13.421,5.448l6.299-15.524
					c4.863,1.431,9.796,2.242,14.793,2.443c4.995,0.207,9.78-0.486,14.358-2.069c4.573-1.579,8.788-4.211,12.639-7.883
					c3.851-3.669,7.052-8.646,9.595-14.915l-24.392-9.905c-1.505,3.714-3.285,6.6-5.336,8.655c-2.045,2.061-4.243,3.482-6.594,4.264
					c-2.352,0.782-4.756,1.022-7.225,0.723c-2.469-0.305-4.854-0.924-7.159-1.858c-2.646-1.077-4.829-2.355-6.551-3.846
					s-3.015-3.112-3.875-4.863c-0.866-1.751-1.298-3.585-1.304-5.508c-0.01-1.922,0.379-3.845,1.166-5.783
					c0.89-2.193,1.986-4.003,3.285-5.424c1.298-1.421,2.926-2.522,4.883-3.315c1.962-0.786,4.283-1.303,6.973-1.549
					c2.689-0.25,5.862-0.271,9.517-0.063c6.299,0.305,12.132,0.31,17.491,0.02c5.36-0.284,10.204-1.165,14.536-2.636
					c4.333-1.466,8.139-3.698,11.419-6.688c3.28-2.988,5.961-7.046,8.04-12.171c1.806-4.439,2.66-8.812,2.572-13.109
					c-0.093-4.299-1.048-8.399-2.872-12.309c-1.819-3.905-4.426-7.534-7.813-10.894c-3.394-3.354-7.524-6.294-12.397-8.821
					l6.811-16.779l-13.504-5.483l-6.908,17.015c-5.091-1.337-10.004-1.839-14.724-1.504c-4.726,0.335-9.093,1.484-13.102,3.446
					c-4.013,1.968-7.616,4.751-10.813,8.351c-3.201,3.604-5.861,8.021-7.985,13.243l24.396,9.904
					c2.547-6.271,5.843-10.396,9.889-12.378c4.048-1.977,8.41-2.021,13.082-0.123c2.532,1.027,4.568,2.268,6.107,3.718
					c1.544,1.446,2.655,3.024,3.338,4.73c0.685,1.712,0.97,3.517,0.853,5.414c-0.119,1.904-0.566,3.821-1.354,5.754
					s-1.775,3.57-2.975,4.908c-1.2,1.342-2.759,2.399-4.682,3.172c-1.918,0.772-4.259,1.283-7.013,1.534
					c-2.759,0.251-6.078,0.319-9.963,0.202c-6.285-0.178-12.103-0.104-17.447,0.226c-5.342,0.324-10.185,1.234-14.527,2.729
					c-4.342,1.495-8.152,3.737-11.434,6.728c-2.9,2.646-5.32,6.107-7.264,10.376c-0.255,0.561-0.506,1.131-0.742,1.722
					C2008.964,1543.434,2008.089,1547.89,2008.207,1552.197z"/>
			</g>
		</g>
		<g>
			<path style="fill:#2C3A64;" d="M2153.258,1105.602c-0.364-1.468,31.896,14.579,33.532,16.395
				c15.13,16.782,10.815,38.684,2.157,38.894c-5.552,0.135-4.477,9.365-4.477,9.365l-61.854-26.166
				C2122.617,1144.089,2130.064,1100.66,2153.258,1105.602z"/>
			<path style="fill:#2C3A64;" d="M2145.642,1108.989c0,0-2.21-24.097,24.712-24.097c0,0-8.158,2.213-12.378,6.639
				c0,0,17.172-10.08,35.858,5.41c18.688,15.489,7.076,54.339,12.759,61.715c5.683,7.377,27.812,8.853,25.107,32.702
				c-2.706,23.851-70.231,53.724-65.896,73.456c0,0-26.463-38.901-7.54-56.654c0,0-9.224,8.688-10.162,19.016
				c0,0-2.504-20.163,10.326-26.611c11.354-5.707,20.653-26.579,19.67-30.31C2177.114,1166.525,2145.642,1108.989,2145.642,1108.989
				z"/>
			<path style="fill:#ED985F;" d="M2170.088,1222.352c4.151-19.991,30.073-26.189,42.338-9.865
				c2.205,2.937,3.758,6.406,4.263,10.503c2.801,22.692-33.482,115.122-38.679,123.492c-9.459,15.236-65.162,67.465-65.162,67.465
				l-10.267-6.223c0,0,39.511-66.888,45.628-73.146C2155.283,1327.338,2162.206,1260.31,2170.088,1222.352z"/>
			<path style="fill:#ED985F;" d="M2116.751,1407.753c0,0-14.983-9.838-20.655-9.204s-22.088,5.357-22.288,7.771
				s18.292,3.919,19.533,5.239c1.24,1.318,13.798,9.701,18.35,7.072S2116.751,1407.753,2116.751,1407.753z"/>
			<path style="fill:#2B478B;" d="M2221.265,1630.008l13.386-1.967c0,0,45.006-35.766,51.709-102.502
				c0.684-6.791,0.825-13.687,0.318-20.635c-0.059-0.801,0.03-1.603,0.468-2.276c0-0.005,0.005-0.01,0.015-0.02
				c1.44-2.208,5.026-7.74,9.88-15.609c4.784-7.749,12.972-22.404,21.981-38.848c16.228-29.614,35.122-65.031,41.604-76.312
				c20.648-35.953,10.695-60.127,10.695-60.127s-57.604-5.695-73.391-19.504l-5.686,8.763c0,0-12.479,55.255-11.89,55.51
				c-0.614,1.879-1.239,3.792-1.874,5.739c-9.85,30.4-21.18,68.399-27.356,99.345c-3.472,17.414-5.311,32.585-4.322,42.921
				c0.34,3.547-0.073,8.994-1.018,15.722C2240.207,1559.863,2221.265,1630.008,2221.265,1630.008z"/>
			<path style="fill:#1A2D4C;" d="M2193.188,1646.943h55.844c0,0,1.339-8.511-1.578-14.968c-2.795-6.196-6.779-6.394-0.51-16.105
				c-3.548,3.653-14.955,5.165-23.028,4.079c-0.988,1.604-6.377,12.362-9.682,14.737
				C2210.584,1637.309,2194.312,1636.375,2193.188,1646.943z"/>
			<path style="fill:#233862;" d="M2278.48,1362.221c4.879,26.904,16.4,71.68,40.541,85.931
				c16.228-29.614,35.122-65.031,41.604-76.312c20.648-35.953,10.695-60.127,10.695-60.127s-57.604-5.695-73.391-19.504
				l-5.686,8.763c0,0-12.479,55.255-11.89,55.51C2279.74,1358.36,2279.115,1360.273,2278.48,1362.221z"/>
			<path style="fill:#ED7D2B;" d="M2176.063,1209.949c0,0-7.896,8.211-11.502,18.046c0,0,12.596,36.17,42.032,40.706
				C2206.593,1268.701,2183.302,1209.935,2176.063,1209.949z"/>
			<path style="fill:#2B478B;" d="M2317.647,1315.867l-0.19-10.445c20.81,2.624,71.752-24.867,71.752-24.867
				s21.771,14.48,24.751,55.832c1.455,20.184,10.657,105.542,11.676,131.03c0.371,9.237,0.494,15.831,0.536,18.466
				c-0.004,0.014-0.004,0.02-0.002,0.025c0.012,0.804,0.389,1.514,0.884,2.149c4.306,5.473,8.041,11.271,11.276,17.284
				c31.753,59.08,15.148,139.357,15.148,139.357l-7.375-1.875c0,0-26.85-83.22-44.396-119.217
				c-2.979-6.106-5.685-10.854-7.947-13.604c-6.599-8.013-13.557-21.622-20.414-38.001c-12.963-30.966-25.548-71.825-34.523-103.463
				C2338.189,1368.654,2317.647,1315.867,2317.647,1315.867z"/>
			<path style="fill:#FFB27D;" d="M2195.869,1246.158c34.019-7.808,12.285-55.611,10.314-54.77
				c-4.713-0.961-15.066-9.237-24.326-25.401l-1.252,1.086l-20.893,18.318c0,0,4.83,7.125,8.893,14.104
				c3.174,5.463,5.874,10.847,5.444,12.694C2172.368,1213.512,2186.795,1248.243,2195.869,1246.158z"/>
			<path style="fill:#ED985F;" d="M2159.713,1185.396c0,0,4.832,7.117,8.893,14.104c12.99-8.008,13.005-24.092,12.004-32.422
				L2159.713,1185.396z"/>
			<path style="fill:#FFB27D;" d="M2159.133,1194.571c0,0,31.543-17.551,20.311-37.025c-11.233-19.475-14.727-34.855-35.34-24.473
				c-20.614,10.383-20.206,20.051-18.038,27.463S2150.64,1198.635,2159.133,1194.571z"/>
			<path style="fill:#2C3A64;" d="M2120.737,1149.177c1.444-8.646,5.837-9.472,8.899-8.895c11.648-19.263,30.68-11.745,30.68-11.745
				c10.165,12.755,24.86,14.932,24.86,14.932s-3.661,6.812-18.741,11.027c-4.606,1.287-9.835,0.508-14.877-1.189
				c10.462,5.833,21.404,8.067,21.404,8.067c-19.873,1.819-38.783-16.35-40.743-18.294c-0.917,2.816-2.525,8.711-1.563,13.021
				c1.308,5.856,6.507,16.465,3.333,17.837C2133.99,1173.938,2118.57,1162.146,2120.737,1149.177z"/>
			<path style="fill:#1A2D4C;" d="M2409.069,1646.943h55.845c0,0,1.338-8.511-1.579-14.968c-2.795-6.196-7.172-9.012-6.124-16.509
				c-3.549,3.654-9.332,7.746-17.405,6.659c-0.989,1.604-6.386,10.186-9.689,12.561
				C2426.467,1637.309,2410.193,1636.375,2409.069,1646.943z"/>
			<path style="fill:#F99746;" d="M2191.867,1284.056c7.185,2.508,17.271,3.88,27.588,5.001c14.684,1.603,29.844,2.699,37.787,5.867
				c2.896,1.155,4.834,2.582,5.438,4.405c3.442,10.353,18.613,26.324,18.613,26.324c97.24-4.426,107.917-45.1,107.917-45.1
				c-65.424-76.074-176.197-98.096-176.197-98.096s-7.913-3.354-27.84,12.481c-13.297,10.572-11.546,14.63-11.546,14.63
				S2170.723,1276.679,2191.867,1284.056z"/>
			<path style="fill:#ED7D2B;" d="M2219.455,1289.057c14.684,1.603,29.844,2.699,37.787,5.867
				c3.244-48.498-19.642-84.977-19.642-84.977S2222.672,1270.704,2219.455,1289.057z"/>
			<path style="fill:#FFB27D;" d="M2204.342,1200.564c0,0,36.803,3.637,39.753,27.549c2.95,23.913-35.284,121.313-40.759,130.134
				c-9.97,16.056-68.668,71.094-68.668,71.094l-10.819-6.558c0,0,41.637-70.484,48.083-77.081
				C2182.053,1335.346,2191.881,1208.848,2204.342,1200.564z"/>
			<path style="fill:#F99746;" d="M2243.032,1242.5c-0.097,0.544-33.965,11.063-55.76,0c0,0-4.665-50.289,21.356-47.56
				c26.021,2.729,41.43,10.925,42.086,23.383C2251.37,1230.781,2243.032,1242.5,2243.032,1242.5z"/>
			<path style="fill:#FFB27D;" d="M2138.013,1422.351c0,0-13.202-12.124-18.902-12.413c-5.7-0.288-22.662,1.727-23.25,4.077
				c-0.585,2.35,17.422,6.815,18.435,8.318s12.053,11.798,16.97,9.938C2136.181,1430.409,2138.013,1422.351,2138.013,1422.351z"/>
		</g>
	</g>
	<g>
		<path style="fill:#233862;" d="M850.6,1649.653L850.6,1649.653c4.397,0.025,9.014-3.183,10.311-7.166l264.947-813.984
			c1.295-3.983-1.219-7.232-5.616-7.258l0,0c-4.397-0.026-9.015,3.182-10.311,7.165l-264.947,813.984
			C843.686,1646.378,846.2,1649.627,850.6,1649.653z"/>
		<path style="fill:#233862;" d="M637.067,1648.406L637.067,1648.406c4.398,0.025,9.015-3.183,10.31-7.166l264.947-813.984
			c1.297-3.983-1.218-7.233-5.615-7.258l0,0c-4.398-0.026-9.015,3.182-10.311,7.165l-264.947,813.984
			C630.155,1645.131,632.67,1648.381,637.067,1648.406z"/>
		<path style="fill:#233862;" d="M866.982,940.677l214.424,1.252c4.135,0.024,8.515-3.02,9.732-6.764l0,0
			c1.22-3.745-1.166-6.828-5.301-6.852l-214.424-1.252c-4.135-0.024-8.514,3.02-9.732,6.765l0,0
			C860.462,937.569,862.849,940.652,866.982,940.677z"/>
		<path style="fill:#233862;" d="M820.724,1082.796l214.424,1.253c4.135,0.023,8.514-3.02,9.732-6.765l0,0
			c1.22-3.745-1.167-6.828-5.302-6.852l-214.423-1.253c-4.135-0.023-8.515,3.021-9.733,6.765l0,0
			C814.203,1079.688,816.589,1082.771,820.724,1082.796z"/>
		<path style="fill:#233862;" d="M776.171,1219.674l214.423,1.252c4.135,0.023,8.515-3.02,9.733-6.765l0,0
			c1.219-3.744-1.167-6.827-5.301-6.852l-214.425-1.253c-4.133-0.023-8.513,3.021-9.732,6.765l0,0
			C769.651,1216.566,772.036,1219.649,776.171,1219.674z"/>
		<path style="fill:#233862;" d="M726.014,1373.769l214.424,1.251c4.135,0.024,8.514-3.02,9.732-6.764l0,0
			c1.22-3.744-1.166-6.827-5.301-6.852l-214.423-1.253c-4.135-0.024-8.515,3.021-9.734,6.765l0,0
			C719.494,1370.661,721.879,1373.744,726.014,1373.769z"/>
		<path style="fill:#233862;" d="M673.517,1535.053l214.424,1.253c4.135,0.024,8.514-3.02,9.732-6.765l0,0
			c1.22-3.744-1.167-6.828-5.301-6.852l-214.424-1.252c-4.135-0.024-8.515,3.019-9.732,6.764l0,0
			C666.996,1531.945,669.382,1535.029,673.517,1535.053z"/>
	</g>
	<path style="fill:#233862;" d="M2651.27,1652.466H175.643c-1.612,0-2.931-1.319-2.931-2.931v-1.29c0-1.612,1.319-2.931,2.931-2.931
		H2651.27c1.611,0,2.931,1.318,2.931,2.931v1.29C2654.2,1651.146,2652.881,1652.466,2651.27,1652.466z"/>
	<g>
		<g>
			<g>
				<path style="fill:#AEC3FF;" d="M1196.207,574.988c-13.975-57.655,21.435-115.723,79.09-129.697
					c57.655-13.975,115.724,21.435,129.697,79.089c13.976,57.655-21.435,115.724-79.089,129.699
					C1268.25,668.053,1210.183,632.644,1196.207,574.988z"/>
			</g>
			<g>
				<path style="fill:#739AF0;" d="M1256.943,515.922c-4.485-18.504,6.88-37.141,25.384-41.626
					c18.505-4.485,37.143,6.879,41.628,25.385c4.485,18.504-6.88,37.142-25.384,41.626
					C1280.065,545.793,1261.428,534.428,1256.943,515.922z"/>
				<path style="fill:#739AF0;" d="M1298.571,541.307c-32.385,7.851-52.273,40.466-44.424,72.849l117.271-28.425
					C1363.569,553.347,1330.954,533.458,1298.571,541.307z"/>
			</g>
		</g>
		<g>
			<path style="fill:#FFB27D;" d="M872.569,668.38c0,0-4.026,10.691-4.982,17.147c-0.571,3.858,0.69,13.501-4.677,14.59
				c-5.747,1.167-8.438-17.213-7.795-20.255c0.705-3.341,2.769-14.895,6.503-15.725C865.352,663.31,872.569,668.38,872.569,668.38z"
				/>
			<path style="fill:#FFB27D;" d="M870.827,669.656c0,0,2.24,7.716,2.24,10.579c0,2.863,1.704,11.303,0,11.824
				c-2.24,0.684-6.099-9.645-6.099-9.645L870.827,669.656z"/>
			<path style="fill:#FFB27D;" d="M1224.283,585.343c-6.062,3.774-4.304,1.518-12.728,7.003c-8.433,5.492-18.749,6.896-24.915,3.043
				l-3.756-0.623l-4.514-0.759l-1.028-13.61c0,0,2.767-0.327,6.225-0.836c1.047-0.153,2.171-0.327,3.285-0.519
				c2.15-1.527,5.928-5.173,8.714-6.758l0.897,3.845c4.946-1.854,11.462-3.042,23.343-0.756c2.383,0.452,4.533,1.806,5.84,3.843
				C1226.867,581.106,1227.317,583.46,1224.283,585.343z"/>
			<path style="fill:#FFB27D;" d="M970.09,464.919c0,0,19.5,23.136,44.334,13.458c0,0,5.344-12.922,5.419-22.446
				c0.008-1.173,0.023-2.309,0.041-3.389c0.133-10.726,0.494-16.744,0.494-16.744s-0.007-0.003-0.025-0.005
				c-1.129-0.472-37.963-15.594-37.933-14.338C983.053,450.464,970.09,464.919,970.09,464.919z"/>
			<path style="fill:#ED975D;" d="M986.119,428.373c3.551,6.583,15.738,19.464,33.765,24.169
				c0.133-10.726,0.494-16.744,0.494-16.744s-0.007-0.003-0.025-0.005C1019.333,435.519,985.062,426.432,986.119,428.373z"/>
			<path style="fill:#FFB27D;" d="M1028.092,434.684c0,0-41.422,9.738-47.09-16.151c-5.668-25.89-14.831-42.069,11.376-49.381
				c26.208-7.313,33.527,1.438,37.521,9.619C1033.892,386.952,1038.722,431.482,1028.092,434.684z"/>
			<path style="fill:#A9453D;" d="M982.419,425.586c-0.565,0.362-9.479,3.101-26.358-30.525c-2.649-5.279-4.455-16.698,1.722-26.788
				c6.177-10.089,28.078-18.023,46.273-21.475c18.196-3.452,22.564,6.787,26.85,17.077c4.499,10.802,17.488,19.695,17.488,19.695
				c-15.69,8.765-34.59-3.771-41.137-1.71c-6.547,2.062-8.859,12.38-9.35,15.688c-0.491,3.308-1.246,6.056-9.479,3.103
				c-8.233-2.954-3.724,11.667-2.404,14.463C986.023,415.113,987.141,422.56,982.419,425.586z"/>
			<g>
				<path style="fill:#A9453D;" d="M874.939,1069.47h-25.082c-5.258,0-11.102-5.265-12.563-14.903
					c-1.462-9.646-12.271-14.903-14.611-22.794c-2.339-7.891,9.647-18.998,9.647-18.998l2.003-2.574l2.085-2.684l19.867,4.673
					c0,0,0.491,4.731,0.798,10.757c0.213,4.351,0.329,9.382,0.08,13.791c-0.585,10.523,2.948,21.851,12.294,23.898
					C878.809,1062.683,874.939,1069.47,874.939,1069.47z"/>
				<path style="fill:#A9453D;" d="M1037.093,1070.173h-54.877c-0.636-0.125-1.118-0.263-1.411-0.409
					c-4.438-2.223-3.05-19.218-2.516-24.469c0.102-0.973,0.176-1.542,0.176-1.542s23.379-18.699,26.596-4.381
					c0.103,0.445,0.219,0.885,0.344,1.315v0.008c4.059,13.396,22.438,13.63,32.916,15.327c0.251,0.04,0.494,0.09,0.733,0.148
					C1047.096,1058.133,1045.37,1070.173,1037.093,1070.173z"/>
				<path style="fill:#F99746;" d="M1036.923,687.808c0,0-3.551,44.299-7.724,97.549c-5.672,72.335-12.493,161.187-13.169,178.021
					c-1.165,29.227-5.847,75.981-5.847,75.981s-11.1,11.107-33.315,6.427c0,0-19.795-66.742-25.45-137.359
					c-0.087-1.157-0.175-2.323-0.263-3.489c-5.26-71.888-13.44-223.265-13.44-223.265L1036.923,687.808z"/>
				<path style="fill:#ED7D2B;" d="M1036.923,687.808c0,0-3.551,44.299-7.724,97.549l-77.78,123.069
					c-0.087-1.157-0.175-2.323-0.263-3.489c-5.26-71.888-13.44-223.265-13.44-223.265L1036.923,687.808z"/>
				<path style="fill:#F99746;" d="M1020.708,693.069c0,0-63.998,160.432-106.079,235.827
					c-42.081,75.395-55.231,96.436-55.231,96.436s-24.108-9.644-26.3-16.219c0,0,16.091-145.553,44.272-181.035
					c15.923-20.05,34.628-80.217,35.505-101.257c0.877-21.041,5.699-62.684,5.699-62.684L1020.708,693.069z"/>
			</g>
			<path style="fill:#4662BC;" d="M867.313,671.432c7.083,2.275,8.218,1.761,8.218,1.761s34.478-62.771,37.97-68.517
				c3.492-5.747,73.202-70.392,73.202-70.392l-17.914-66.802c0,0-79.287,102.672-87.849,117.404
				c-14.148,24.346-22.44,80.888-22.44,80.888S861.748,669.644,867.313,671.432z"/>
			<path style="fill:#6980E2;" d="M1050.433,560.514c-0.249,13.718-1.045,29.14-2.12,44.804c-0.066,0.929-0.133,1.857-0.198,2.786
				c-0.687,9.704-1.433,19.43-2.288,28.915c-0.344,3.802-0.71,7.56-1.09,11.254l-0.059,0.496c-0.029,1.383-0.197,2.883-0.352,4.25
				c-3.495,35.524-7.159,63.591-7.838,64.022c-0.813,0.541-1.727,0.811-2.729,0.693c-9.316-1.169-37.111,0.943-59.869-4.007
				c-19.202-4.051-35.736-11.728-53.258-22.083c-2.325-1.375-7.626-5.017-7.195-7.737c0.424-2.991,1.206-7.313,2.201-12.746
				c3.452-18.895,9.411-51.401,11.444-89.44c0.394-7.087,0.973-14.085,1.718-20.967c1.953-17.924,5.083-34.947,9.28-50.069
				c7.803-28.095,19.268-49.609,33.653-58.025c1.879-1.054,11.992,5.382,21.279,11.342c8.578,5.499,17.609,7.02,26.392,6.252
				l7.729,8.549c9.36,10.881,19.327,25.367,22.048,45.959c0.205,1.523,0.38,3.138,0.526,4.857
				C1050.462,538.004,1050.646,548.623,1050.433,560.514z"/>
			<path style="fill:#4662BC;" d="M1050.433,560.514c-0.249,13.718-1.045,29.14-2.12,44.804c-0.066,0.929-0.133,1.857-0.198,2.786
				c-53.214-33.309-61.411-94.26-61.411-94.26c26.18,1.147,46.977,7.166,63.006,15.773
				C1050.462,538.004,1050.646,548.623,1050.433,560.514z"/>
			<path style="fill:#6980E2;" d="M1184.887,586.751c0.55-7.894-3.537-9.207-3.537-9.207s-80.235-14.539-87.056-16.685
				c-6.819-2.146-65.143-62.815-65.143-62.815s-22.355-25.212-40.66-19.644c-15.905,4.838-22.123,17.245-24.239,29.065
				c-2.523,14.085,3.969,28.258,16.168,35.739c27.38,16.795,82.196,49.884,95.105,53.669c28.734,8.424,105.933,0.676,105.933,0.676
				S1184.457,592.95,1184.887,586.751z"/>
		</g>
	</g>
	<g>
		<polygon style="fill:#F99746;" points="1256.257,658.017 1386.849,963.403 1599.816,963.403 1736.438,658.017 		"/>
		<path style="fill:#F78248;" d="M1738.446,673.174h-490.228c-8.876,0-16.072-7.196-16.072-16.073l0,0
			c0-8.876,7.196-16.072,16.072-16.072h490.228c8.876,0,16.073,7.196,16.073,16.072l0,0
			C1754.52,665.977,1747.322,673.174,1738.446,673.174z"/>
		<path style="fill:#F78248;" d="M1577.026,1067.653h-168.18c-12.148,0-21.998-9.849-21.998-21.998v-82.252h212.176v82.252
			C1599.024,1057.805,1589.176,1067.653,1577.026,1067.653z"/>
	</g>
	<path style="fill:#DFEBFD;" d="M1658.861,1231.016l20.163-10.93c1.688-0.894,3.731-0.766,5.295,0.328
		c1.99,1.403,4.054,2.733,6.188,3.989c3.969,2.335,8.016,4.339,12.146,5.956c1.934,0.76,3.211,2.585,3.216,4.65l0.271,23.967
		c0.005,2.559,2.002,4.692,4.592,4.88l21.852,1.648c2.478,0.181,4.669-1.521,5.137-3.946l4.028-21.699
		c0.347-2.119,2.084-3.739,4.279-4.016c9.255-1.174,18.31-3.832,26.808-7.862c2.052-0.97,4.56-0.396,5.998,1.352l8.536,10.365
		c1.639,1.951,4.501,2.416,6.661,1.016l18.15-11.998c0.375-0.243,0.708-0.513,0.988-0.841c1.382-1.511,1.684-3.801,0.655-5.654
		l-8.147-15.071l-1.992-3.67c2.539-3.181,4.903-6.608,7.022-10.211c2.855-4.853,5.207-9.886,7.034-14.966
		c0.704-1.938,2.5-3.262,4.564-3.267l19.308-0.197c2.639-0.044,4.819-2.07,4.998-4.695l1.264-16.706l0.35-4.788
		c0.2-2.611-1.601-4.978-4.172-5.445l-18.132-3.38c-2.106-0.368-3.743-2.027-4.027-4.111c-0.954-6.224-2.557-12.334-4.805-18.186
		c-0.154-0.527-0.348-0.988-0.549-1.484c-0.079-0.163-0.123-0.334-0.168-0.506c-0.574-1.935,0.094-4.009,1.663-5.293l16.799-13.896
		c0.2-0.144,0.37-0.333,0.527-0.502c1.505-1.67,1.724-4.213,0.476-6.137l-11.934-18.113c-1.443-2.184-4.3-2.906-6.628-1.662
		l-21.025,11.408c-1.772,0.988-3.955,0.751-5.516-0.545c-3.454-2.815-7.181-5.415-11.171-7.763
		c-2.113-1.243-4.257-2.388-6.429-3.434c-1.759-0.86-2.894-2.632-2.906-4.585l-0.268-23.036c-0.017-2.536-1.992-4.656-4.548-4.854
		l-21.619-1.599c-2.611-0.201-4.965,1.579-5.458,4.193l-3.19,17.169c-0.426,2.304-2.348,3.99-4.668,4.135
		c-9.13,0.464-18.121,2.374-26.664,5.595c-2.007,0.794-4.321,0.187-5.708-1.501l-12.519-15.145
		c-1.677-2.033-4.621-2.458-6.828-1.027l-18.052,11.88c-2.173,1.424-2.873,4.291-1.636,6.53l0.468,0.884l9.473,17.506
		c1.017,1.876,0.761,4.136-0.629,5.758l-0.013,0.021c-3.326,3.88-6.363,8.103-9.054,12.675c-1.434,2.438-2.713,4.907-3.906,7.429
		c-0.804,1.763-2.541,2.89-4.472,2.914l-19.6,0.199c-2.682,0.019-4.9,2.111-5.093,4.757l-1.604,21.528
		c-0.042,0.614,0.04,1.215,0.183,1.763c0.518,1.785,2.023,3.223,3.928,3.589l14.491,2.66c1.771,0.346,3.232,1.611,3.826,3.268
		c0.149,0.437,0.253,0.903,0.286,1.388c0.659,11.711,3.659,23.145,8.807,33.692c0.898,1.778,0.573,3.91-0.684,5.405
		c-0.183,0.212-0.387,0.411-0.612,0.598l-13.612,11.242c-1.973,1.626-2.403,4.48-1.003,6.639l0.274,0.424l11.615,17.663
		C1653.63,1231.567,1656.521,1232.279,1658.861,1231.016z M1769.745,1116.326c2.429,2.532,4.725,5.392,6.816,8.597
		c3.979,6.116,6.873,17.139,6.33,24.427c-0.053,0.781-0.128,1.551-0.203,2.319c-5.143,46.739-62.418,61.036-88.863,21.35
		c-3.448-5.193-6.063-13.729-6.597-20.866c-0.1-1.655-0.126-3.239,0.003-4.644c0.531-6.627,2.085-12.623,4.468-17.957
		C1705.305,1099.173,1745.317,1091.124,1769.745,1116.326z"/>
	<path style="opacity:0.5;fill:#AEC3FF;" d="M1666.539,987.201l11.235-6.395c0.94-0.524,2.095-0.476,2.987,0.123
		c1.139,0.767,2.317,1.492,3.534,2.175c2.265,1.269,4.569,2.352,6.916,3.214c1.098,0.406,1.84,1.421,1.866,2.584l0.434,13.503
		c0.033,1.442,1.184,2.621,2.645,2.696l12.334,0.673c1.398,0.073,2.613-0.911,2.849-2.283l2.017-12.276
		c0.17-1.198,1.13-2.132,2.363-2.314c5.203-0.769,10.275-2.374,15.016-4.745c1.146-0.571,2.565-0.276,3.397,0.691l4.932,5.741
		c0.946,1.08,2.564,1.309,3.766,0.494l10.088-6.974c0.209-0.143,0.394-0.298,0.548-0.486c0.761-0.867,0.904-2.161,0.303-3.193
		l-4.769-8.398l-1.166-2.045c1.395-1.822,2.687-3.782,3.839-5.836c1.552-2.77,2.818-5.634,3.789-8.518
		c0.373-1.1,1.37-1.868,2.533-1.894l10.879-0.337c1.486-0.056,2.691-1.224,2.762-2.704l0.516-9.431l0.142-2.702
		c0.083-1.475-0.96-2.787-2.415-3.02l-10.258-1.692c-1.191-0.184-2.134-1.1-2.317-2.27c-0.611-3.497-1.586-6.922-2.921-10.193
		c-0.094-0.294-0.208-0.553-0.327-0.83c-0.047-0.091-0.073-0.187-0.101-0.283c-0.347-1.083,0.006-2.26,0.875-3.002l9.305-8.027
		c0.111-0.084,0.204-0.192,0.291-0.29c0.829-0.959,0.922-2.395,0.195-3.464l-6.937-10.068c-0.839-1.215-2.457-1.587-3.755-0.859
		l-11.716,6.676c-0.988,0.579-2.22,0.47-3.114-0.242c-1.979-1.546-4.11-2.968-6.387-4.244c-1.205-0.676-2.426-1.296-3.662-1.859
		c-1.001-0.464-1.662-1.449-1.692-2.549l-0.42-12.981c-0.04-1.429-1.179-2.6-2.621-2.682l-12.202-0.648
		c-1.474-0.083-2.779,0.948-3.026,2.428l-1.598,9.713c-0.213,1.304-1.275,2.275-2.582,2.384c-5.139,0.369-10.185,1.552-14.962,3.466
		c-1.121,0.471-2.432,0.156-3.234-0.778l-7.231-8.389c-0.969-1.126-2.633-1.33-3.86-0.499l-10.033,6.907
		c-1.208,0.827-1.569,2.452-0.845,3.698l0.272,0.494l5.544,9.755c0.595,1.045,0.478,2.321-0.287,3.251l-0.007,0.013
		c-1.829,2.225-3.49,4.641-4.954,7.248c-0.779,1.392-1.471,2.798-2.114,4.233c-0.432,1.002-1.397,1.657-2.485,1.694l-11.044,0.341
		c-1.511,0.043-2.736,1.248-2.813,2.74l-0.651,12.152c-0.017,0.346,0.036,0.684,0.123,0.991c0.313,1,1.179,1.792,2.256,1.977
		l8.198,1.329c1.001,0.174,1.84,0.87,2.193,1.797c0.09,0.244,0.153,0.506,0.179,0.778c0.508,6.592,2.333,13.001,5.357,18.886
		c0.527,0.991,0.369,2.195-0.322,3.054c-0.101,0.121-0.213,0.236-0.338,0.343l-7.539,6.496c-1.093,0.939-1.303,2.552-0.487,3.754
		l0.159,0.234l6.753,9.817C1663.598,987.573,1665.234,987.94,1666.539,987.201z M1727.685,921.267
		c1.398,1.399,2.726,2.984,3.942,4.766c2.314,3.399,4.074,9.578,3.854,13.691c-0.021,0.441-0.055,0.875-0.088,1.31
		c-2.351,26.4-34.461,35.129-49.829,13.073c-2.005-2.887-3.578-7.666-3.963-11.683c-0.075-0.932-0.109-1.823-0.053-2.617
		c0.222-3.741,1.027-7.138,2.309-10.172C1691.168,912.356,1713.622,907.35,1727.685,921.267z"/>
	<path style="opacity:0.5;fill:#AEC3FF;" d="M1167.547,1078.425l19.591-10.618c1.639-0.869,3.625-0.745,5.145,0.318
		c1.934,1.363,3.938,2.656,6.013,3.876c3.855,2.269,7.789,4.216,11.802,5.786c1.878,0.739,3.119,2.513,3.125,4.52l0.262,23.287
		c0.006,2.485,1.945,4.558,4.462,4.74l21.23,1.602c2.407,0.176,4.537-1.478,4.992-3.833l3.914-21.085
		c0.336-2.059,2.023-3.632,4.156-3.9c8.994-1.142,17.791-3.724,26.048-7.64c1.993-0.942,4.43-0.384,5.828,1.313l8.294,10.07
		c1.592,1.896,4.373,2.348,6.472,0.986l17.635-11.657c0.364-0.236,0.688-0.497,0.96-0.817c1.343-1.466,1.637-3.691,0.637-5.493
		l-7.916-14.644l-1.937-3.564c2.467-3.091,4.766-6.422,6.823-9.921c2.775-4.716,5.061-9.606,6.836-14.542
		c0.685-1.883,2.429-3.169,4.435-3.175l18.76-0.19c2.563-0.043,4.683-2.012,4.855-4.562l1.229-16.232l0.34-4.652
		c0.193-2.537-1.557-4.837-4.054-5.29l-17.618-3.284c-2.046-0.358-3.636-1.971-3.912-3.995c-0.928-6.047-2.483-11.984-4.669-17.67
		c-0.149-0.512-0.338-0.961-0.533-1.442c-0.076-0.158-0.119-0.324-0.163-0.49c-0.558-1.881,0.092-3.896,1.616-5.144l16.321-13.502
		c0.195-0.139,0.36-0.323,0.513-0.487c1.462-1.622,1.675-4.093,0.461-5.963l-11.593-17.598c-1.403-2.123-4.178-2.825-6.44-1.617
		L1301.035,933c-1.722,0.962-3.842,0.729-5.359-0.529c-3.354-2.735-6.975-5.261-10.852-7.542c-2.054-1.208-4.136-2.32-6.247-3.336
		c-1.708-0.836-2.812-2.558-2.823-4.454l-0.26-22.383c-0.018-2.465-1.937-4.525-4.419-4.716l-21.005-1.554
		c-2.538-0.195-4.825,1.534-5.303,4.073l-3.102,16.683c-0.414,2.239-2.28,3.877-4.535,4.018c-8.87,0.451-17.607,2.308-25.908,5.435
		c-1.949,0.771-4.197,0.182-5.546-1.458l-12.162-14.716c-1.63-1.975-4.49-2.388-6.634-0.997l-17.54,11.543
		c-2.11,1.382-2.792,4.169-1.589,6.344l0.454,0.86l9.203,17.009c0.988,1.822,0.741,4.019-0.61,5.593l-0.012,0.021
		c-3.232,3.769-6.184,7.872-8.797,12.316c-1.394,2.367-2.636,4.767-3.795,7.217c-0.781,1.713-2.47,2.807-4.347,2.832l-19.042,0.193
		c-2.606,0.018-4.762,2.051-4.948,4.621l-1.559,20.918c-0.04,0.597,0.04,1.18,0.177,1.712c0.504,1.735,1.967,3.132,3.816,3.487
		l14.081,2.585c1.72,0.335,3.141,1.565,3.718,3.175c0.146,0.424,0.244,0.877,0.278,1.349c0.64,11.379,3.554,22.486,8.555,32.736
		c0.874,1.727,0.559,3.798-0.663,5.251c-0.178,0.206-0.376,0.4-0.596,0.581l-13.225,10.922c-1.918,1.58-2.335,4.353-0.975,6.451
		l0.266,0.411l11.286,17.162C1162.463,1078.961,1165.271,1079.654,1167.547,1078.425z M1275.281,966.991
		c2.361,2.461,4.592,5.239,6.624,8.354c3.866,5.942,6.679,16.651,6.151,23.733c-0.052,0.759-0.125,1.506-0.197,2.253
		c-4.996,45.413-60.647,59.304-86.341,20.744c-3.352-5.047-5.891-13.34-6.41-20.274c-0.097-1.608-0.123-3.146,0.003-4.512
		c0.517-6.44,2.026-12.265,4.342-17.447C1212.672,950.325,1251.549,942.505,1275.281,966.991z"/>
</g>
</svg>
